<svg width="152" height="199" viewBox="0 0 152 199" fill="none" xmlns="http://www.w3.org/2000/svg">
    <path d="M75.9998 97.3241C98.2188 97.3241 116.233 75.5376 116.233 48.6623C116.233 21.7865 110.318 0 75.9998 0C41.6812 0 35.7659 21.7865 35.7659 48.6623C35.7659 75.5376 53.7797 97.3241 75.9998 97.3241Z" fill="#7F99DA"/>
    <path d="M0.00791169 171.625C-0.00579176 171.163 0.00105997 169.986 0.00791169 171.625V171.625Z" fill="#7F99DA"/>
    <path d="M151.988 172.905C151.996 169.792 152.01 172.456 151.988 172.905V172.905Z" fill="#7F99DA"/>
    <path d="M151.903 169.66C151.158 122.843 145.017 109.502 98.0299 101.058C98.0299 101.058 91.4157 109.451 75.9993 109.451C60.5829 109.451 53.9676 101.058 53.9676 101.058C7.49289 109.41 0.979185 122.553 0.122719 168.139C0.0524887 171.861 0.0204732 172.057 0.00791169 171.625C0.00976616 172.151 0.0116374 172.967 0.0127211 174.19C0.014092 175.738 0.369928 177.263 1.34733 178.463C5.77507 183.898 22.8597 199 75.9993 199C129.138 199 146.223 183.898 150.651 178.463C151.629 177.264 151.984 175.738 151.986 174.19C151.987 173.681 151.988 173.256 151.988 172.905C151.976 173.172 151.95 172.655 151.903 169.66Z" fill="#7F99DA"/>
</svg>
