<svg width="1366" height="2441" viewBox="0 0 1366 2441" fill="none" xmlns="http://www.w3.org/2000/svg">
<path d="M6047.22 -5245.45C6047.22 -5245.45 5286.96 -4782.55 2906.6 -4160.15C526.232 -3537.74 -1623.11 -4413.55 -3817.95 -3681.33C-6012.79 -2949.11 -6977.27 -1867.5 -6977.27 -1867.5M6043.96 -5246.39C6043.96 -5246.39 5284.18 -4782.2 2904.38 -4159.57C524.581 -3536.94 -1623.94 -4411.47 -3817.56 -3680.22C-6011.19 -2948.98 -6975.18 -1867.83 -6975.18 -1867.83M6040.34 -5246.72C6040.34 -5246.72 5281.04 -4781.23 2901.81 -4158.39C522.582 -3535.54 -1625.12 -4408.77 -3817.53 -3678.49C-6009.94 -2948.21 -6973.45 -1867.55 -6973.45 -1867.55M6036.38 -5246.42C6036.38 -5246.42 5277.55 -4779.65 2898.9 -4156.58C520.245 -3533.51 -1626.65 -4405.45 -3817.84 -3676.14C-6009.03 -2946.83 -6972.07 -1866.64 -6972.07 -1866.64M6032.08 -5245.52C6032.08 -5245.52 5273.74 -4777.46 2895.65 -4154.17C517.553 -3530.88 -1628.52 -4401.52 -3818.49 -3673.19C-6008.47 -2944.85 -6971.01 -1865.14 -6971.01 -1865.14M6027.44 -5244.02C6027.44 -5244.02 5269.58 -4774.67 2892.06 -4151.15C514.54 -3527.63 -1630.72 -4396.99 -3819.47 -3669.63C-6008.22 -2942.26 -6970.29 -1863.03 -6970.29 -1863.03M6022.49 -5241.92C6022.49 -5241.92 5265.1 -4771.28 2888.16 -4147.55C511.215 -3523.81 -1633.23 -4391.87 -3820.77 -3665.48C-6008.31 -2939.08 -6969.89 -1860.32 -6969.89 -1860.32M6017.22 -5239.23C6017.22 -5239.23 5260.31 -4767.31 2883.94 -4143.34C507.572 -3519.38 -1636.07 -4386.16 -3822.39 -3660.74C-6008.72 -2935.32 -6969.81 -1857.02 -6969.81 -1857.02M6011.64 -5235.96C6011.64 -5235.96 5255.21 -4762.75 2879.41 -4138.57C503.605 -3514.38 -1639.21 -4379.86 -3824.32 -3655.41C-6009.43 -2930.96 -6970.04 -1853.15 -6970.04 -1853.15M6005.76 -5232.12C6005.76 -5232.12 5249.81 -4757.61 2874.58 -4133.2C499.339 -3508.79 -1642.66 -4372.99 -3826.55 -3649.51C-6010.44 -2926.03 -6970.57 -1848.7 -6970.57 -1848.7M5999.59 -5227.7C5999.59 -5227.7 5244.12 -4751.91 2869.46 -4127.28C494.789 -3502.64 -1646.39 -4365.54 -3829.06 -3643.04C-6011.73 -2920.54 -6971.39 -1843.67 -6971.39 -1843.67M5993.13 -5222.72C5993.13 -5222.72 5238.14 -4745.64 2864.04 -4120.79C489.945 -3495.93 -1650.42 -4357.54 -3831.87 -3636.01C-6013.32 -2914.48 -6972.5 -1838.09 -6972.5 -1838.09M5986.39 -5217.18C5986.39 -5217.18 5231.88 -4738.81 2858.35 -4113.74C484.827 -3488.67 -1654.72 -4348.98 -3834.96 -3628.42C-6015.2 -2907.86 -6973.89 -1831.95 -6973.89 -1831.95M5979.38 -5211.1C5979.38 -5211.1 5225.35 -4731.44 2852.4 -4106.15C479.435 -3480.84 -1659.3 -4339.87 -3838.33 -3620.28C-6017.35 -2900.69 -6975.55 -1825.25 -6975.55 -1825.25M5972.1 -5204.47C5972.1 -5204.47 5218.55 -4723.52 2846.16 -4098C473.78 -3472.48 -1664.15 -4330.22 -3841.95 -3611.6C-6019.75 -2892.98 -6977.48 -1818.01 -6977.48 -1818.01M5964.57 -5197.31C5964.57 -5197.31 5211.5 -4715.07 2839.68 -4089.33C467.863 -3463.58 -1669.24 -4320.02 -3845.83 -3602.38C-6022.41 -2884.73 -6979.66 -1810.24 -6979.66 -1810.24M5956.79 -5189.61C5956.79 -5189.61 5204.18 -4706.08 2832.94 -4080.12C461.701 -3454.15 -1674.6 -4309.3 -3849.96 -3592.63C-6025.32 -2875.95 -6982.09 -1801.93 -6982.09 -1801.93M5948.76 -5181.39C5948.76 -5181.39 5196.64 -4696.57 2825.96 -4070.38C455.292 -3444.19 -1680.19 -4298.05 -3854.34 -3582.35C-6028.49 -2866.64 -6984.77 -1793.11 -6984.77 -1793.11M5940.5 -5172.65C5940.5 -5172.65 5188.86 -4686.54 2818.75 -4060.13C448.649 -3433.72 -1686.02 -4286.29 -3858.95 -3571.56C-6031.88 -2856.83 -6987.68 -1783.76 -6987.68 -1783.76M5932.01 -5163.4C5932.01 -5163.4 5180.84 -4676.01 2811.31 -4049.37C441.776 -3422.74 -1692.07 -4274.01 -3863.78 -3560.25C-6035.5 -2846.5 -6990.82 -1773.9 -6990.82 -1773.9M5923.3 -5153.64C5923.3 -5153.64 5172.61 -4664.96 2803.65 -4038.1C434.682 -3411.24 -1698.35 -4261.23 -3868.84 -3548.44C-6039.34 -2835.66 -6994.17 -1763.54 -6994.17 -1763.54M5914.37 -5143.39C5914.37 -5143.39 5164.16 -4653.42 2795.77 -4026.34C427.371 -3399.26 -1704.84 -4247.95 -3874.12 -3536.13C-6043.41 -2824.32 -6997.75 -1752.68 -6997.75 -1752.68M5905.24 -5132.64C5905.24 -5132.64 5155.51 -4641.39 2787.69 -4014.08C419.86 -3386.78 -1711.54 -4234.18 -3879.6 -3523.33C-6047.66 -2812.49 -7001.54 -1741.33 -7001.54 -1741.33M5895.9 -5121.41C5895.9 -5121.41 5146.65 -4628.87 2779.4 -4001.34C412.146 -3373.81 -1718.44 -4219.92 -3885.29 -3510.05C-6052.14 -2800.18 -7005.52 -1729.49 -7005.52 -1729.49M5886.39 -5109.7C5886.39 -5109.7 5137.62 -4615.86 2770.93 -3988.11C404.247 -3360.37 -1725.53 -4205.18 -3891.16 -3496.28C-6056.79 -2787.38 -7009.69 -1717.16 -7009.69 -1717.16M5876.68 -5097.52C5876.68 -5097.52 5128.39 -4602.39 2762.27 -3974.42C396.157 -3346.45 -1732.8 -4189.97 -3897.21 -3482.05C-6061.62 -2774.13 -7014.05 -1704.38 -7014.05 -1704.38M5866.8 -5084.87C5866.8 -5084.87 5118.99 -4588.45 2753.43 -3960.26C387.889 -3332.07 -1740.24 -4174.3 -3903.44 -3467.34C-6066.64 -2760.39 -7018.58 -1691.12 -7018.58 -1691.12M5856.74 -5071.75C5856.74 -5071.75 5109.41 -4574.05 2744.43 -3945.64C379.459 -3317.22 -1747.87 -4158.16 -3909.85 -3452.18C-6071.83 -2746.19 -7023.29 -1677.4 -7023.29 -1677.4M5846.52 -5058.19C5846.52 -5058.19 5099.66 -4559.2 2735.26 -3930.56C370.857 -3301.93 -1755.65 -4141.57 -3916.41 -3436.57C-6077.18 -2731.56 -7028.15 -1663.23 -7028.15 -1663.23M5836.15 -5044.19C5836.15 -5044.19 5089.78 -4543.9 2725.94 -3915.04C362.102 -3286.18 -1763.59 -4124.54 -3923.13 -3420.5C-6082.68 -2716.47 -7033.17 -1648.62 -7033.17 -1648.62M5825.63 -5029.74C5825.63 -5029.74 5079.73 -4528.17 2716.46 -3899.09C353.196 -3270 -1771.68 -4107.06 -3930.01 -3404C-6088.33 -2700.93 -7038.35 -1633.56 -7038.35 -1633.56M5814.96 -5014.86C5814.96 -5014.86 5069.55 -4511.99 2706.85 -3882.69C344.158 -3253.38 -1779.9 -4089.15 -3937.02 -3387.06C-6094.13 -2684.97 -7043.66 -1618.07 -7043.66 -1618.07M5804.17 -4999.54C5804.17 -4999.54 5059.23 -4495.39 2697.11 -3865.87C334.99 -3236.34 -1788.27 -4070.82 -3944.16 -3369.7C-6100.06 -2668.58 -7049.11 -1602.15 -7049.11 -1602.15M5793.25 -4983.81C5793.25 -4983.81 5048.78 -4478.38 2687.23 -3848.62C325.677 -3218.87 -1796.76 -4052.06 -3951.43 -3351.91C-6106.11 -2651.76 -7054.67 -1585.81 -7054.67 -1585.81M5782.2 -4967.67C5782.2 -4967.67 5038.22 -4460.94 2677.24 -3830.97C316.25 -3201 -1805.36 -4032.89 -3958.82 -3333.71C-6112.28 -2634.54 -7060.37 -1569.06 -7060.37 -1569.06M5771.06 -4951.11C5771.06 -4951.11 5027.55 -4443.1 2667.14 -3812.9C306.724 -3182.7 -1814.08 -4013.31 -3966.32 -3315.1C-6118.57 -2616.89 -7066.16 -1551.9 -7066.16 -1551.9M5759.8 -4934.16C5759.8 -4934.16 5016.77 -4424.85 2656.93 -3794.43C297.081 -3164.02 -1822.91 -3993.33 -3973.93 -3296.1C-6124.95 -2598.87 -7072.07 -1534.34 -7072.07 -1534.34M5748.44 -4916.8C5748.44 -4916.8 5005.89 -4406.21 2646.62 -3775.57C287.344 -3144.92 -1831.83 -3972.95 -3981.63 -3276.69C-6131.44 -2580.43 -7078.07 -1516.38 -7078.07 -1516.38M5737 -4899.07C5737 -4899.07 4994.93 -4387.19 2636.22 -3756.32C277.52 -3125.46 -1840.83 -3952.19 -3989.43 -3256.9C-6138.02 -2561.61 -7084.17 -1498.03 -7084.17 -1498.03M5725.47 -4880.95C5725.47 -4880.95 4983.88 -4367.78 2625.75 -3736.69C267.608 -3105.6 -1849.93 -3931.04 -3997.3 -3236.72C-6144.68 -2542.41 -7090.35 -1479.31 -7090.35 -1479.31M5713.87 -4862.45C5713.87 -4862.45 4972.76 -4347.99 2615.2 -3716.68C257.637 -3085.37 -1859.1 -3909.52 -4005.25 -3216.18C-6151.41 -2522.83 -7096.6 -1460.2 -7096.6 -1460.2M5702.19 -4843.58C5702.19 -4843.58 4961.57 -4327.84 2604.57 -3696.3C247.569 -3064.77 -1868.33 -3887.62 -4013.28 -3195.26C-6158.22 -2502.89 -7102.92 -1440.73 -7102.92 -1440.73M5690.47 -4824.36C5690.47 -4824.36 4950.31 -4307.32 2593.89 -3675.57C237.46 -3043.81 -1877.63 -3865.38 -4021.35 -3173.97C-6165.08 -2482.57 -7109.3 -1420.89 -7109.3 -1420.89M5678.68 -4804.77C5678.68 -4804.77 4939.01 -4286.45 2583.15 -3654.47C227.292 -3022.49 -1886.98 -3842.76 -4029.49 -3152.33C-6171.99 -2461.9 -7115.74 -1400.7 -7115.74 -1400.7M5666.85 -4784.84C5666.85 -4784.84 4927.66 -4265.22 2572.37 -3633.02C217.086 -3000.82 -1896.38 -3819.81 -4037.67 -3130.34C-6178.96 -2440.88 -7122.22 -1380.16 -7122.22 -1380.16M5654.98 -4764.56C5654.98 -4764.56 4916.26 -4243.66 2561.54 -3611.24C206.829 -2978.81 -1905.81 -3796.5 -4045.88 -3108.01C-6185.96 -2419.53 -7128.73 -1359.27 -7128.73 -1359.27M5643.08 -4743.95C5643.08 -4743.95 4904.85 -4221.75 2550.7 -3589.11C196.553 -2956.47 -1915.28 -3772.86 -4054.14 -3085.35C-6192.99 -2397.84 -7135.28 -1338.05 -7135.28 -1338.05M5631.15 -4723.01C5631.15 -4723.01 4893.39 -4199.52 2539.82 -3566.66C186.243 -2933.79 -1924.77 -3748.89 -4062.41 -3062.35C-6200.04 -2375.81 -7141.86 -1316.5 -7141.86 -1316.5M5619.21 -4701.73C5619.21 -4701.73 4881.93 -4176.96 2528.93 -3543.87C175.921 -2910.78 -1934.28 -3724.59 -4070.7 -3039.02C-6207.12 -2353.45 -7148.45 -1294.62 -7148.45 -1294.62M5607.26 -4680.15C5607.26 -4680.15 4870.46 -4154.08 2518.02 -3520.78C165.581 -2887.46 -1943.8 -3699.99 -4079.01 -3015.39C-6214.21 -2330.79 -7155.05 -1272.43 -7155.05 -1272.43M5595.3 -4658.26C5595.3 -4658.26 4858.97 -4130.9 2507.11 -3497.37C155.249 -2863.83 -1953.32 -3675.06 -4087.31 -2991.44C-6221.29 -2307.81 -7161.66 -1249.93 -7161.66 -1249.93M5583.35 -4636.06C5583.35 -4636.06 4847.51 -4107.41 2496.21 -3473.66C144.919 -2839.9 -1962.84 -3649.83 -4095.61 -2967.18C-6228.37 -2284.53 -7168.25 -1227.13 -7168.25 -1227.13M5571.41 -4613.55C5571.41 -4613.55 4836.05 -4083.62 2485.33 -3449.64C134.597 -2815.66 -1972.34 -3624.31 -4103.89 -2942.63C-6235.44 -2260.96 -7174.85 -1204.01 -7174.85 -1204.01M5559.5 -4590.76C5559.5 -4590.76 4824.61 -4059.55 2474.45 -3425.35C124.303 -2791.15 -1981.83 -3598.49 -4112.16 -2917.78C-6242.49 -2237.07 -7181.41 -1180.61 -7181.41 -1180.61M5547.6 -4567.69C5547.6 -4567.69 4813.2 -4035.18 2463.61 -3400.75C114.025 -2766.32 -1991.28 -3572.39 -4120.4 -2892.65C-6249.51 -2212.91 -7187.95 -1156.93 -7187.95 -1156.93M5535.75 -4544.34C5535.75 -4544.34 4801.82 -4010.54 2452.8 -3375.89C103.788 -2741.25 -2000.71 -3546.02 -4128.61 -2867.25C-6256.51 -2188.48 -7194.47 -1132.97 -7194.47 -1132.97M5523.93 -4520.7C5523.93 -4520.7 4790.48 -3985.62 2442.03 -3350.75C93.5856 -2715.88 -2010.09 -3519.36 -4136.78 -2841.57C-6263.45 -2163.77 -7200.93 -1108.74 -7200.93 -1108.74M5512.17 -4496.81C5512.17 -4496.81 4779.19 -3960.44 2431.32 -3325.35C83.4401 -2690.25 -2019.42 -3492.44 -4144.89 -2815.62C-6270.36 -2138.79 -7207.34 -1084.24 -7207.34 -1084.24M5500.45 -4472.66C5500.45 -4472.66 4767.96 -3935 2420.65 -3299.69C73.3394 -2664.37 -2028.71 -3465.27 -4152.95 -2789.41C-6277.2 -2113.56 -7213.71 -1059.48 -7213.71 -1059.48M5488.8 -4448.26C5488.8 -4448.26 4756.79 -3909.31 2410.05 -3273.77C63.3194 -2638.23 -2037.91 -3437.84 -4160.95 -2762.96C-6283.98 -2088.08 -7220 -1034.47 -7220 -1034.47M5477.22 -4423.61C5477.22 -4423.61 4745.68 -3883.37 2399.52 -3247.61C53.3535 -2611.85 -2047.07 -3410.16 -4168.88 -2736.25C-6290.7 -2062.35 -7226.23 -1009.21 -7226.23 -1009.21M5465.72 -4398.72C5465.72 -4398.72 4734.66 -3857.19 2389.07 -3221.21C43.4738 -2585.22 -2056.13 -3382.24 -4176.73 -2709.31C-6297.32 -2036.38 -7232.39 -983.716 -7232.39 -983.716M5454.3 -4373.6C5454.3 -4373.6 4723.72 -3830.78 2378.7 -3194.57C33.6732 -2558.37 -2065.12 -3354.1 -4184.5 -2682.13C-6303.87 -2010.17 -7238.45 -957.983 -7238.45 -957.983M5442.98 -4348.25C5442.98 -4348.25 4712.88 -3804.14 2368.42 -3167.71C23.9668 -2531.28 -2074 -3325.72 -4192.16 -2654.73C-6310.33 -1983.74 -7244.42 -932.026 -7244.42 -932.026M5431.76 -4322.68C5431.76 -4322.68 4702.13 -3777.29 2358.25 -3140.63C14.3587 -2503.98 -2082.79 -3297.13 -4199.74 -2627.11C-6316.69 -1957.09 -7250.3 -905.848 -7250.3 -905.848M5420.63 -4296.89C5420.63 -4296.89 4691.49 -3750.21 2348.17 -3113.33C4.8585 -2476.45 -2091.48 -3268.31 -4207.21 -2599.27C-6322.94 -1930.23 -7256.07 -879.457 -7256.07 -879.457M5409.63 -4270.9C5409.63 -4270.9 4680.96 -3722.93 2338.22 -3085.83C-4.5219 -2448.73 -2100.04 -3239.3 -4214.56 -2571.22C-6329.07 -1903.14 -7261.72 -852.856 -7261.72 -852.856M5398.75 -4244.71C5398.75 -4244.71 4670.56 -3695.45 2328.39 -3058.13C-13.7762 -2420.81 -2108.5 -3210.08 -4221.79 -2542.98C-6335.09 -1875.88 -7267.26 -826.061 -7267.26 -826.061M5388 -4218.33C5388 -4218.33 4660.29 -3667.78 2318.69 -3030.23C-22.9186 -2392.69 -2116.81 -3180.67 -4228.89 -2514.54C-6340.97 -1848.41 -7272.65 -799.069 -7272.65 -799.069M5377.38 -4191.75C5377.38 -4191.75 4650.15 -3639.91 2309.12 -3002.14C-31.9199 -2364.38 -2125 -3151.06 -4235.86 -2485.9C-6346.73 -1820.74 -7277.92 -771.883 -7277.92 -771.883M5366.9 -4164.99C5366.9 -4164.99 4640.15 -3611.86 2299.69 -2973.87C-40.7806 -2335.89 -2133.04 -3121.28 -4242.69 -2457.1C-6352.33 -1792.91 -7283.05 -744.519 -7283.05 -744.519M5356.58 -4138.06C5356.58 -4138.06 4630.31 -3583.64 2290.41 -2945.44C-49.4854 -2307.23 -2140.93 -3091.33 -4249.36 -2428.11C-6357.79 -1764.9 -7288.03 -716.986 -7288.03 -716.986M5346.41 -4110.96C5346.41 -4110.96 4620.62 -3555.25 2281.3 -2916.82C-58.0268 -2278.39 -2148.66 -3061.2 -4255.87 -2398.96C-6363.08 -1736.71 -7292.84 -689.275 -7292.84 -689.275M5336.41 -4083.7C5336.41 -4083.7 4611.1 -3526.7 2272.34 -2888.05C-66.4106 -2249.4 -2156.23 -3030.92 -4262.23 -2369.65C-6368.22 -1708.38 -7297.49 -661.412 -7297.49 -661.412M5326.58 -4056.28C5326.58 -4056.28 4601.74 -3497.99 2263.56 -2859.12C-74.6215 -2220.24 -2163.62 -3000.47 -4268.4 -2340.17C-6373.18 -1679.87 -7301.96 -633.377 -7301.96 -633.377M5316.93 -4028.72C5316.93 -4028.72 4592.58 -3469.14 2254.96 -2830.04C-82.6567 -2190.94 -2170.84 -2969.88 -4274.4 -2310.55C-6377.95 -1651.22 -7306.27 -605.207 -7306.27 -605.207M5307.47 -4001.01C5307.47 -4001.01 4583.6 -3440.14 2246.55 -2800.82C-90.5 -2161.5 -2177.87 -2939.14 -4280.21 -2280.79C-6382.55 -1622.44 -7310.37 -576.89 -7310.37 -576.89M5298.21 -3973.16C5298.21 -3973.16 4574.81 -3411.01 2238.33 -2771.46C-98.1504 -2131.92 -2184.7 -2908.27 -4285.83 -2250.89C-6386.95 -1593.51 -7314.3 -548.438 -7314.3 -548.438M5289.14 -3945.19C5289.14 -3945.19 4566.21 -3381.75 2230.31 -2741.98C-105.598 -2102.21 -2191.34 -2877.27 -4291.24 -2220.86C-6391.14 -1564.45 -7318.01 -519.851 -7318.01 -519.851M5280.28 -3917.09C5280.28 -3917.09 4557.83 -3352.36 2222.5 -2712.37C-112.833 -2072.38 -2197.76 -2846.15 -4296.45 -2190.71C-6395.14 -1535.27 -7321.52 -491.154 -7321.52 -491.154M5271.64 -3888.87C5271.64 -3888.87 4549.68 -3322.85 2214.91 -2682.64C-119.852 -2042.42 -2203.97 -2814.9 -4301.44 -2160.44C-6398.91 -1505.97 -7324.81 -462.325 -7324.81 -462.325M5263.21 -3860.55C5263.21 -3860.55 4541.73 -3293.24 2207.53 -2652.8C-126.662 -2012.37 -2209.96 -2783.55 -4306.21 -2130.06C-6402.46 -1476.56 -7327.88 -433.395 -7327.88 -433.395M5255.03 -3832.12C5255.03 -3832.12 4534.02 -3263.52 2200.4 -2622.86C-133.227 -1982.2 -2215.7 -2752.1 -4310.74 -2099.58C-6405.78 -1447.05 -7330.72 -404.357 -7330.72 -404.357M5247.08 -3803.59C5247.08 -3803.59 4526.55 -3233.7 2193.49 -2592.82C-139.561 -1951.94 -2221.23 -2720.54 -4315.05 -2068.99C-6408.86 -1417.44 -7333.31 -375.223 -7333.31 -375.223M5239.37 -3774.97C5239.37 -3774.97 4519.33 -3203.8 2186.84 -2562.69C-145.649 -1921.58 -2226.49 -2688.9 -4319.09 -2038.32C-6411.7 -1387.75 -7335.67 -345.993 -7335.67 -345.993M5231.92 -3746.27C5231.92 -3746.27 4512.35 -3173.81 2180.43 -2532.48C-151.477 -1891.16 -2231.51 -2657.17 -4322.9 -2007.57C-6414.29 -1357.97 -7337.77 -316.684 -7337.77 -316.684M5224.73 -3717.49C5224.73 -3717.49 4505.63 -3143.74 2174.29 -2502.19C-157.046 -1860.63 -2236.27 -2625.37 -4326.44 -1976.73C-6416.61 -1328.09 -7339.61 -287.295 -7339.61 -287.295M5217.8 -3688.64C5217.8 -3688.64 4499.18 -3113.6 2168.41 -2471.82C-162.362 -1830.05 -2240.76 -2593.49 -4329.71 -1945.82C-6418.66 -1298.15 -7341.19 -257.836 -7341.19 -257.836M5211.15 -3659.72C5211.15 -3659.72 4493.02 -3083.39 2162.81 -2441.4C-167.396 -1799.4 -2244.98 -2561.55 -4332.72 -1914.86C-6420.46 -1268.17 -7342.49 -228.317 -7342.49 -228.317M5204.78 -3630.75C5204.78 -3630.75 4487.13 -3053.13 2157.49 -2410.91C-172.142 -1768.69 -2248.92 -2529.54 -4335.43 -1883.82C-6421.95 -1238.11 -7343.51 -198.733 -7343.51 -198.733M5198.7 -3601.72C5198.7 -3601.72 4481.52 -3022.82 2152.45 -2380.38C-176.612 -1737.94 -2252.57 -2497.49 -4337.87 -1852.75C-6423.17 -1208 -7344.24 -169.098 -7344.24 -169.098M5192.91 -3572.65C5192.91 -3572.65 4476.21 -2992.45 2147.72 -2349.79C-180.778 -1707.13 -2255.92 -2465.39 -4340.01 -1821.62C-6424.09 -1177.84 -7344.68 -139.413 -7344.68 -139.413M5187.44 -3543.54C5187.44 -3543.54 4471.22 -2962.05 2143.29 -2319.16C-184.638 -1676.28 -2258.97 -2433.26 -4341.83 -1790.45C-6424.69 -1147.65 -7344.81 -109.697 -7344.81 -109.697M5182.26 -3514.39C5182.26 -3514.39 4466.52 -2931.61 2139.17 -2288.51C-188.187 -1645.4 -2261.7 -2401.08 -4343.35 -1759.25C-6425 -1117.41 -7344.63 -79.9425 -7344.63 -79.9425M5177.41 -3485.22C5177.41 -3485.22 4462.15 -2901.15 2135.36 -2257.82C-191.421 -1614.5 -2264.12 -2368.89 -4344.55 -1728.03C-6424.98 -1087.17 -7344.12 -50.1678 -7344.12 -50.1678M5172.88 -3456.03C5172.88 -3456.03 4458.1 -2870.68 2131.88 -2227.12C-194.329 -1583.57 -2266.21 -2336.68 -4345.43 -1696.78C-6424.64 -1056.9 -7343.3 -20.365 -7343.3 -20.365M5168.69 -3426.83C5168.69 -3426.83 4454.39 -2840.18 2128.74 -2196.41C-196.912 -1552.64 -2267.97 -2304.44 -4345.97 -1665.52C-6423.97 -1026.61 -7342.14 9.44398 -7342.14 9.44398M5164.84 -3397.62C5164.84 -3397.62 4451.01 -2809.69 2125.93 -2165.69C-199.137 -1521.69 -2269.39 -2272.2 -4346.17 -1634.26C-6422.95 -996.322 -7340.65 39.2622 -7340.65 39.2622M5161.32 -3368.41C5161.32 -3368.41 4447.98 -2779.18 2123.48 -2134.97C-201.033 -1490.75 -2270.46 -2239.97 -4346.03 -1603C-6421.6 -966.027 -7338.81 69.0757 -7338.81 69.0757M5158.18 -3339.2C5158.18 -3339.2 4445.31 -2748.69 2121.38 -2104.25C-202.551 -1459.8 -2271.18 -2207.74 -4345.53 -1571.74C-6419.88 -935.74 -7336.61 98.8938 -7336.61 98.8938M5155.38 -3310.01C5155.38 -3310.01 4442.99 -2718.21 2119.63 -2073.54C-203.741 -1428.88 -2271.54 -2175.52 -4344.67 -1540.49C-6417.81 -905.464 -7334.05 128.688 -7334.05 128.688M5152.96 -3280.83C5152.96 -3280.83 4441.05 -2687.75 2118.26 -2042.86C-204.538 -1397.96 -2271.53 -2143.32 -4343.44 -1509.27C-6415.35 -875.211 -7331.12 158.471 -7331.12 158.471M5150.91 -3251.69C5150.91 -3251.69 4439.48 -2657.32 2117.25 -2012.21C-204.971 -1367.09 -2271.14 -2111.15 -4341.84 -1478.07C-6412.53 -844.987 -7327.82 188.217 -7327.82 188.217M5149.25 -3222.57C5149.25 -3222.57 4438.29 -2626.91 2116.64 -1981.58C-205.02 -1336.25 -2270.37 -2079.01 -4339.85 -1446.9C-6409.33 -814.786 -7324.13 217.945 -7324.13 217.945M5147.98 -3193.5C5147.98 -3193.5 4437.5 -2596.54 2116.41 -1950.99C-204.671 -1305.43 -2269.22 -2046.91 -4337.48 -1415.77C-6405.73 -784.626 -7320.05 247.628 -7320.05 247.628M5147.1 -3164.47C5147.1 -3164.47 4437.11 -2566.23 2116.59 -1920.45C-203.935 -1274.67 -2267.65 -2014.85 -4334.69 -1384.68C-6401.74 -754.518 -7315.58 277.271 -7315.58 277.271M5146.63 -3135.49C5146.63 -3135.49 4437.12 -2535.95 2117.17 -1889.95C-202.767 -1243.95 -2265.68 -1982.84 -4331.51 -1353.65C-6397.34 -724.453 -7310.69 306.856 -7310.69 306.856M5146.58 -3106.57C5146.58 -3106.57 4437.54 -2505.74 2118.17 -1859.52C-201.204 -1213.3 -2263.3 -1950.9 -4327.91 -1322.67C-6392.53 -694.448 -7305.4 336.388 -7305.4 336.388M5146.95 -3077.71C5146.95 -3077.71 4438.38 -2475.6 2119.58 -1829.15C-199.219 -1182.7 -2260.5 -1919.01 -4323.9 -1291.76C-6387.29 -664.509 -7299.68 365.85 -7299.68 365.85M5147.73 -3048.92C5147.73 -3048.92 4439.65 -2445.53 2121.42 -1798.86C-196.823 -1152.19 -2257.28 -1887.2 -4319.45 -1260.92C-6381.63 -634.641 -7293.54 395.241 -7293.54 395.241M5148.97 -3020.21C5148.97 -3020.21 4441.36 -2415.53 2123.7 -1768.63C-193.971 -1121.74 -2253.62 -1855.47 -4314.58 -1230.16C-6375.53 -604.853 -7286.96 424.557 -7286.96 424.557M5150.63 -2991.59C5150.63 -2991.59 4443.5 -2385.61 2126.4 -1738.5C-190.684 -1091.38 -2249.52 -1823.81 -4309.26 -1199.48C-6369 -575.14 -7279.95 453.791 -7279.95 453.791M5152.75 -2963.05C5152.75 -2963.05 4446.1 -2355.79 2129.58 -1708.45C-186.945 -1061.11 -2244.96 -1792.25 -4303.48 -1168.89C-6362.01 -545.529 -7272.48 482.937 -7272.48 482.937M5155.32 -2934.61C5155.32 -2934.61 4449.15 -2326.06 2133.2 -1678.5C-182.754 -1030.94 -2239.96 -1760.79 -4297.27 -1138.4C-6354.58 -516.006 -7264.56 511.981 -7264.56 511.981M5158.36 -2906.28C5158.36 -2906.28 4452.67 -2296.44 2137.29 -1648.66C-178.1 -1000.87 -2234.49 -1729.43 -4290.58 -1108.01C-6346.67 -486.589 -7256.16 540.924 -7256.16 540.924M5161.87 -2878.06C5161.87 -2878.06 4456.66 -2266.92 2141.84 -1618.92C-172.975 -970.918 -2228.55 -1698.18 -4283.42 -1077.73C-6338.3 -457.286 -7247.31 569.756 -7247.31 569.756M5165.85 -2849.95C5165.85 -2849.95 4461.12 -2237.52 2146.88 -1589.29C-167.368 -941.073 -2222.12 -1667.04 -4275.78 -1047.57C-6329.43 -428.096 -7237.97 598.469 -7237.97 598.469M5170.33 -2821.96C5170.33 -2821.96 4466.08 -2208.25 2152.4 -1559.8C-161.277 -911.354 -2215.22 -1636.03 -4267.66 -1017.53C-6320.1 -399.022 -7228.15 627.064 -7228.15 627.064M5175.29 -2794.11C5175.29 -2794.11 4471.52 -2179.11 2158.41 -1530.44C-154.704 -881.768 -2207.82 -1605.15 -4259.04 -987.618C-6310.26 -370.087 -7217.84 655.528 -7217.84 655.528M5180.75 -2766.38C5180.75 -2766.38 4477.46 -2150.09 2164.92 -1501.2C-147.615 -852.305 -2199.92 -1574.4 -4249.92 -957.841C-6299.93 -341.283 -7207.02 683.855 -7207.02 683.855M5186.72 -2738.8C5186.72 -2738.8 4483.91 -2121.22 2171.94 -1472.11C-140.017 -822.99 -2191.52 -1543.8 -4240.31 -928.211C-6289.1 -312.622 -7195.7 712.04 -7195.7 712.04M5193.21 -2711.38C5193.21 -2711.38 4490.88 -2092.51 2179.48 -1443.17C-131.915 -793.829 -2182.59 -1513.35 -4230.16 -898.729C-6277.74 -284.11 -7183.86 740.081 -7183.86 740.081M5200.22 -2684.1C5200.22 -2684.1 4498.36 -2063.94 2187.54 -1414.38C-123.292 -764.821 -2173.15 -1483.04 -4219.51 -869.395C-6265.86 -255.751 -7171.5 767.963 -7171.5 767.963M5207.76 -2656.99C5207.76 -2656.99 4506.38 -2035.54 2196.12 -1385.76C-114.134 -735.97 -2163.18 -1452.9 -4208.32 -840.227C-6253.45 -227.559 -7158.61 795.681 -7158.61 795.681M5215.84 -2630.04C5215.84 -2630.04 4514.93 -2007.3 2205.25 -1357.3C-104.44 -707.291 -2152.67 -1422.93 -4196.59 -811.228C-6240.51 -199.533 -7145.19 823.236 -7145.19 823.236M5224.45 -2603.27C5224.45 -2603.27 4524.02 -1979.24 2214.92 -1329.01C-94.1975 -678.781 -2141.62 -1393.13 -4184.32 -782.399C-6227.03 -171.679 -7131.22 850.617 -7131.22 850.617M5233.62 -2576.68C5233.62 -2576.68 4533.68 -1951.37 2225.13 -1300.92C-83.4138 -650.466 -2130.02 -1363.52 -4171.5 -753.766C-6212.99 -144.004 -7116.7 877.813 -7116.7 877.813M5243.35 -2550.28C5243.35 -2550.28 4543.88 -1923.68 2235.91 -1273C-72.0625 -622.325 -2117.85 -1334.09 -4158.12 -725.306C-6198.39 -116.523 -7101.62 904.823 -7101.62 904.823M5253.64 -2524.07C5253.64 -2524.07 4554.65 -1896.18 2247.25 -1245.28C-60.1532 -594.385 -2105.13 -1304.85 -4144.18 -697.043C-6183.23 -89.2291 -7085.98 931.637 -7085.98 931.637M5264.51 -2498.06C5264.51 -2498.06 4565.99 -1868.89 2259.16 -1217.76C-47.6681 -566.637 -2091.83 -1275.82 -4129.67 -668.982C-6167.5 -62.1403 -7069.77 958.255 -7069.77 958.255M5275.95 -2472.26C5275.95 -2472.26 4577.92 -1841.79 2271.65 -1190.45C-34.6145 -539.1 -2077.95 -1246.99 -4114.57 -641.123C-6151.18 -35.2542 -7052.96 984.662 -7052.96 984.662M5287.98 -2446.67C5287.98 -2446.67 4590.43 -1814.92 2284.74 -1163.35C-20.945 -511.776 -2063.48 -1218.38 -4098.88 -613.483C-6134.28 -8.58629 -7035.58 1010.85 -7035.58 1010.85M5300.62 -2421.3C5300.62 -2421.3 4603.54 -1788.26 2298.42 -1136.47C-6.6986 -484.679 -2048.42 -1189.99 -4082.6 -586.06C-6116.79 17.8664 -7017.6 1036.83 -7017.6 1036.83M5313.85 -2396.16C5313.85 -2396.16 4617.25 -1761.83 2312.7 -1109.82C8.14133 -457.808 -2032.76 -1161.82 -4065.72 -558.869C-6098.68 44.0856 -6999.02 1062.58 -6999.02 1062.58M5327.68 -2371.25C5327.68 -2371.25 4631.57 -1735.63 2327.59 -1083.4C23.601 -431.159 -2016.48 -1133.88 -4048.23 -531.906C-6079.97 70.0759 -6979.83 1088.1 -6979.83 1088.1M5342.14 -2346.59C5342.14 -2346.59 4646.5 -1709.68 2343.08 -1057.22C39.6681 -404.762 -1999.6 -1106.19 -4030.13 -505.185C-6060.66 95.8205 -6960.03 1113.37 -6960.03 1113.37M5357.22 -2322.16C5357.22 -2322.16 4662.06 -1683.97 2359.22 -1031.28C56.3749 -378.599 -1982.08 -1078.74 -4011.39 -478.703C-6040.71 121.333 -6939.59 1138.4 -6939.59 1138.4M5372.93 -2297.99C5372.93 -2297.99 4678.25 -1658.5 2375.97 -1005.6C73.6985 -352.698 -1963.94 -1051.55 -3992.03 -452.478C-6020.13 146.591 -6918.53 1163.18 -6918.53 1163.18M5389.28 -2274.08C5389.28 -2274.08 4695.09 -1633.3 2393.38 -980.174C91.6773 -327.051 -1945.14 -1024.61 -3972.03 -426.512C-5998.91 171.581 -6896.83 1187.7 -6896.83 1187.7M5406.28 -2250.43C5406.28 -2250.43 4712.56 -1608.36 2411.42 -955.015C110.291 -301.666 -1925.72 -997.928 -3951.38 -400.809C-5977.03 196.309 -6874.49 1211.96 -6874.49 1211.96M5423.93 -2227.05C5423.93 -2227.05 4730.68 -1583.69 2430.12 -930.124C129.559 -276.555 -1905.64 -971.528 -3930.08 -375.379C-5954.53 220.77 -6851.49 1235.94 -6851.49 1235.94M5442.23 -2203.96C5442.23 -2203.96 4749.47 -1559.31 2449.47 -905.521C149.48 -251.733 -1884.9 -945.41 -3908.12 -350.234C-5931.35 244.943 -6827.83 1259.64 -6827.83 1259.64M5461.21 -2181.15C5461.21 -2181.15 4768.92 -1535.21 2469.5 -881.195C170.081 -227.18 -1863.48 -919.568 -3885.49 -325.361C-5907.5 268.845 -6803.5 1283.07 -6803.5 1283.07M5480.86 -2158.62C5480.86 -2158.62 4789.06 -1511.4 2490.2 -857.162C191.346 -202.92 -1841.4 -894.02 -3862.19 -300.783C-5882.99 292.453 -6778.5 1306.2 -6778.5 1306.2M5501.27 -2135.98C5501.27 -2135.98 4809.94 -1487.46 2511.65 -833C213.368 -178.538 -1818.56 -868.348 -3838.13 -276.086C-5857.71 316.172 -6752.74 1329.45 -6752.74 1329.45M5521.55 -2113.42C5521.55 -2113.42 4830.7 -1463.61 2532.99 -808.932C235.274 -154.243 -1795.84 -842.756 -3814.2 -251.47C-5832.56 339.816 -6727.11 1352.62 -6727.11 1352.62M5541.59 -2091.01C5541.59 -2091.01 4851.22 -1439.92 2554.08 -785.016C256.942 -130.11 -1773.37 -817.337 -3790.51 -227.015C-5807.65 363.308 -6701.72 1375.63 -6701.72 1375.63M5561.4 -2068.78C5561.4 -2068.78 4871.51 -1416.4 2574.93 -761.275C278.359 -106.147 -1751.13 -792.08 -3767.05 -202.731C-5782.97 386.619 -6676.56 1398.46 -6676.56 1398.46M5580.97 -2046.72C5580.97 -2046.72 4891.55 -1393.05 2595.55 -737.701C299.542 -82.3536 -1729.13 -766.985 -3743.83 -178.613C-5758.54 409.758 -6651.64 1421.14 -6651.64 1421.14M5600.3 -2024.81C5600.3 -2024.81 4911.37 -1369.85 2615.93 -714.278C320.5 -58.704 -1707.35 -742.052 -3720.84 -154.645C-5734.34 432.756 -6626.96 1443.66 -6626.96 1443.66M5619.41 -2003.06C5619.41 -2003.06 4930.95 -1346.81 2636.09 -691.017C341.225 -35.2239 -1685.81 -717.277 -3698.08 -130.848C-5710.35 455.581 -6602.49 1466.01 -6602.49 1466.01M5638.29 -1981.46C5638.29 -1981.46 4950.32 -1323.93 2656.02 -667.908C361.72 -11.8865 -1664.49 -692.652 -3675.55 -107.193C-5686.61 478.258 -6578.26 1488.21 -6578.26 1488.21M5656.95 -1960.02C5656.95 -1960.02 4969.45 -1301.2 2675.73 -644.958C382.005 11.2816 -1643.4 -668.186 -3653.24 -83.7054C-5663.08 500.775 -6554.25 1510.26 -6554.25 1510.26M5675.38 -1938.73C5675.38 -1938.73 4988.36 -1278.62 2695.21 -622.152C402.062 34.3134 -1622.53 -643.871 -3631.16 -60.354C-5639.78 523.157 -6530.47 1532.16 -6530.47 1532.16M5693.59 -1917.59C5693.59 -1917.59 5007.05 -1256.19 2714.47 -599.503C421.888 57.182 -1601.88 -619.7 -3609.3 -37.1598C-5616.71 545.381 -6506.91 1553.91 -6506.91 1553.91M5711.59 -1896.59C5711.59 -1896.59 5025.53 -1233.9 2733.51 -576.989C441.495 79.9185 -1581.46 -595.674 -3587.65 -14.1083C-5593.84 567.458 -6483.56 1575.52 -6483.56 1575.52M5729.37 -1875.73C5729.37 -1875.73 5043.78 -1211.75 2752.34 -554.62C460.889 102.514 -1561.25 -571.789 -3566.23 8.80703C-5571.19 589.401 -6460.43 1596.98 -6460.43 1596.98M5746.92 -1855.02C5746.92 -1855.02 5061.82 -1189.75 2770.94 -532.39C480.067 124.963 -1541.26 -548.05 -3545.01 31.5794C-5548.77 611.203 -6437.52 1618.3 -6437.52 1618.3M5764.28 -1834.44C5764.28 -1834.44 5079.65 -1167.88 2789.35 -510.306C499.041 147.275 -1521.47 -524.443 -3524.01 54.2111C-5526.55 632.865 -6414.83 1639.49 -6414.83 1639.49M5781.42 -1813.99C5781.42 -1813.99 5097.28 -1146.14 2807.54 -488.34C517.807 169.459 -1501.9 -500.973 -3503.22 76.7084C-5504.54 654.39 -6392.33 1660.55 -6392.33 1660.55M5798.35 -1793.68C5798.35 -1793.68 5114.68 -1124.54 2825.51 -466.521C536.348 191.497 -1482.53 -477.635 -3482.64 99.0767C-5482.74 675.788 -6370.05 1681.47 -6370.05 1681.47M5815.07 -1773.49C5815.07 -1773.49 5131.89 -1103.06 2843.29 -444.82C554.698 213.425 -1463.38 -454.422 -3462.25 121.315C-5461.13 697.052 -6347.97 1702.26 -6347.97 1702.26M5831.6 -1753.44C5831.6 -1753.44 5148.89 -1081.72 2860.86 -423.256C572.84 235.209 -1444.42 -431.342 -3442.08 143.425C-5439.75 718.191 -6326.1 1722.92 -6326.1 1722.92M5847.92 -1733.5C5847.92 -1733.5 5165.69 -1060.49 2878.24 -401.801C590.784 256.889 -1425.66 -408.378 -3422.11 165.419C-5418.56 739.215 -6304.43 1743.46 -6304.43 1743.46M5864.04 -1713.69C5864.04 -1713.69 5182.29 -1039.39 2895.4 -380.481C608.516 278.429 -1407.11 -385.537 -3402.34 187.282C-5397.57 760.106 -6282.96 1763.89 -6282.96 1763.89M5879.97 -1693.99C5879.97 -1693.99 5198.69 -1018.41 2912.38 -359.278C626.071 299.858 -1388.74 -362.818 -3382.76 209.03C-5376.78 780.879 -6261.68 1784.19 -6261.68 1784.19M5895.69 -1674.41C5895.69 -1674.41 5214.9 -997.538 2929.16 -338.182C643.415 321.173 -1370.58 -340.213 -3363.38 230.663C-5356.18 801.539 -6240.6 1804.37 -6240.6 1804.37M5911.23 -1654.95C5911.23 -1654.95 5230.91 -976.789 2945.74 -317.214C660.569 342.361 -1352.61 -317.72 -3344.19 252.183C-5335.77 822.087 -6219.71 1824.45 -6219.71 1824.45M5926.58 -1635.6C5926.58 -1635.6 5246.74 -956.148 2962.14 -296.344C677.529 363.459 -1334.83 -295.342 -3325.19 273.589C-5315.56 842.523 -6199.01 1844.41 -6199.01 1844.41M5941.73 -1616.35C5941.73 -1616.35 5262.38 -935.612 2978.34 -275.588C694.302 384.435 -1317.24 -273.072 -3306.39 294.892C-5295.54 862.855 -6178.51 1864.26 -6178.51 1864.26M5956.71 -1597.21C5956.71 -1597.21 5277.82 -915.183 2994.36 -254.933C710.894 405.316 -1299.84 -250.906 -3287.76 316.083C-5275.69 883.072 -6158.18 1884.01 -6158.18 1884.01M5971.49 -1578.17C5971.49 -1578.17 5293.09 -894.854 3010.19 -234.385C727.296 426.084 -1282.62 -228.842 -3269.33 337.178C-5256.05 903.197 -6138.05 1903.66 -6138.05 1903.66M5986.1 -1559.24C5986.1 -1559.24 5308.18 -874.633 3025.86 -213.937C743.535 446.758 -1265.57 -206.878 -3251.06 358.169C-5236.55 923.215 -6118.09 1923.2 -6118.09 1923.2M6000.53 -1540.39C6000.53 -1540.39 5323.08 -854.501 3041.33 -193.586C759.576 467.329 -1248.71 -185.012 -3232.99 379.059C-5217.27 943.135 -6098.31 1942.65 -6098.31 1942.65M6014.77 -1521.65C6014.77 -1521.65 5337.81 -834.466 3056.62 -173.325C775.441 487.809 -1232.03 -163.242 -3215.09 399.865C-5198.16 962.972 -6078.72 1962 -6078.72 1962M6028.85 -1503C6028.85 -1503 5352.35 -814.528 3071.74 -153.167C791.13 508.194 -1215.52 -141.568 -3197.37 420.56C-5179.22 982.688 -6059.3 1981.25 -6059.3 1981.25M6042.74 -1484.43C6042.74 -1484.43 5366.73 -794.676 3086.69 -133.087C806.645 528.494 -1199.2 -119.969 -3179.83 441.187C-5160.46 1002.34 -6040.05 2000.43 -6040.05 2000.43M6056.48 -1465.96C6056.48 -1465.96 5380.94 -774.915 3101.47 -113.106C821.998 548.701 -1183.03 -98.4731 -3162.44 461.711C-5141.85 1021.89 -6020.97 2019.51 -6020.97 2019.51M6070.03 -1447.57C6070.03 -1447.57 5394.98 -755.236 3116.08 -93.2036C837.182 568.829 -1167.03 -77.0613 -3145.23 482.159C-5123.42 1041.38 -6002.06 2038.5 -6002.06 2038.5M6083.42 -1429.26C6083.42 -1429.26 5408.85 -735.636 3130.52 -73.3836C852.189 588.869 -1151.21 -55.7264 -3128.18 502.515C-5105.16 1060.76 -5983.31 2057.42 -5983.31 2057.42M6096.65 -1411.03C6096.65 -1411.03 5422.56 -716.118 3144.79 -53.6371C867.029 608.837 -1135.54 -34.4648 -3111.31 522.807C-5087.07 1080.08 -5964.74 2076.27 -5964.74 2076.27M6109.72 -1392.88C6109.72 -1392.88 5436.1 -696.673 3158.91 -33.9785C881.713 628.722 -1120.05 -13.2898 -3094.59 543.003C-5069.14 1099.3 -5946.32 2095.02 -5946.32 2095.02M6122.62 -1374.8C6122.62 -1374.8 5449.48 -677.306 3172.86 -14.3922C896.23 648.522 -1104.71 7.81178 -3078.04 563.141C-5051.36 1118.47 -5928.07 2113.71 -5928.07 2113.71M6135.37 -1356.79C6135.37 -1356.79 5462.71 -658.007 3186.65 5.1327C910.6 668.273 -1089.53 28.846 -3061.64 583.197C-5033.75 1137.55 -5909.97 2132.32 -5909.97 2132.32M6147.96 -1338.86C6147.96 -1338.86 5475.77 -638.782 3200.29 24.5752C924.815 687.933 -1074.51 49.8068 -3045.4 603.191C-5016.28 1156.58 -5892.02 2150.86 -5892.02 2150.86M6160.39 -1320.99C6160.39 -1320.99 5488.69 -619.623 3213.78 43.9628C938.869 707.548 -1059.63 70.7094 -3029.31 623.118C-4998.99 1175.53 -5874.24 2169.35 -5874.24 2169.35M6172.68 -1303.18C6172.68 -1303.18 5501.46 -600.531 3227.12 63.2741C952.772 727.08 -1044.91 91.5303 -3013.37 642.973C-4981.83 1194.41 -5856.6 2187.75 -5856.6 2187.75M6184.82 -1285.44C6184.82 -1285.44 5514.07 -581.495 3240.3 82.5368C966.528 746.568 -1030.34 112.309 -2997.59 662.775C-4964.83 1213.24 -5839.12 2206.11 -5839.12 2206.11M6196.81 -1267.75C6196.81 -1267.75 5526.54 -562.515 3253.34 101.736C980.134 765.988 -1015.92 133.023 -2981.94 682.517C-4947.97 1232.02 -5821.78 2224.41 -5821.78 2224.41M6208.64 -1250.11C6208.64 -1250.11 5538.86 -543.593 3266.22 120.886C993.584 785.366 -1001.65 153.689 -2966.46 702.213C-4931.27 1250.74 -5804.59 2242.66 -5804.59 2242.66M6220.35 -1232.53C6220.35 -1232.53 5551.04 -524.723 3278.97 139.976C1006.9 804.676 -987.516 174.289 -2951.1 721.84C-4914.69 1269.39 -5787.54 2260.84 -5787.54 2260.84M6231.91 -1215C6231.91 -1215 5563.08 -505.906 3291.58 159.019C1020.09 823.938 -973.521 194.849 -2935.89 741.422C-4898.26 1288 -5770.63 2278.97 -5770.63 2278.97M6243.33 -1197.52C6243.33 -1197.52 5574.97 -487.138 3304.05 178.005C1033.13 843.15 -959.665 215.351 -2920.82 760.96C-4881.98 1306.57 -5753.86 2297.06 -5753.86 2297.06M6254.61 -1180.09C6254.61 -1180.09 5586.74 -468.414 3316.39 196.957C1046.03 862.322 -945.946 235.812 -2905.88 780.449C-4865.82 1325.09 -5737.22 2315.11 -5737.22 2315.11M6265.76 -1162.69C6265.76 -1162.69 5598.36 -449.732 3328.58 215.859C1058.8 881.449 -932.365 256.235 -2891.09 799.896C-4849.81 1343.56 -5720.72 2333.11 -5720.72 2333.11M6276.78 -1145.34C6276.78 -1145.34 5609.86 -431.087 3340.65 234.723C1071.44 900.534 -918.907 276.614 -2876.41 819.303C-4833.92 1361.99 -5704.35 2351.07 -5704.35 2351.07M6287.67 -1128.02C6287.67 -1128.02 5621.23 -412.482 3352.59 253.554C1083.94 919.591 -905.587 296.955 -2861.88 838.674C-4818.17 1380.39 -5688.12 2368.99 -5688.12 2368.99M6298.43 -1110.74C6298.43 -1110.74 5632.46 -393.912 3364.39 272.344C1096.32 938.601 -892.394 317.261 -2847.46 858.007C-4802.53 1398.76 -5672.01 2386.88 -5672.01 2386.88M6309.06 -1093.5C6309.06 -1093.5 5643.58 -375.38 3376.08 291.102C1108.58 957.585 -879.327 337.537 -2833.18 877.311C-4787.03 1417.09 -5656.02 2404.73 -5656.02 2404.73M6319.57 -1076.27C6319.57 -1076.27 5654.57 -356.867 3387.64 309.835C1120.7 976.537 -866.384 357.785 -2819.01 896.586C-4771.65 1435.39 -5640.15 2422.56 -5640.15 2422.56M6329.96 -1059.08C6329.96 -1059.08 5665.43 -338.386 3399.08 328.542C1132.71 995.464 -853.559 378.002 -2804.98 915.833C-4756.39 1453.66 -5624.41 2440.36 -5624.41 2440.36M6340.23 -1041.91C6340.23 -1041.91 5676.19 -319.93 3410.4 347.218C1144.61 1014.37 -840.851 398.193 -2791.05 935.054C-4741.26 1471.92 -5608.79 2458.14 -5608.79 2458.14M6350.38 -1024.77C6350.38 -1024.77 5686.82 -301.497 3421.59 365.879C1156.37 1033.25 -828.269 418.37 -2777.25 954.253C-4726.24 1490.14 -5593.29 2475.89 -5593.29 2475.89M6360.42 -1007.64C6360.42 -1007.64 5697.34 -283.077 3432.68 384.513C1168.02 1052.1 -815.794 438.519 -2763.56 973.436C-4711.32 1508.35 -5577.9 2493.63 -5577.9 2493.63M6370.35 -990.53C6370.35 -990.53 5707.74 -264.681 3443.66 403.141C1179.57 1070.96 -803.431 458.656 -2749.98 992.603C-4696.53 1526.55 -5562.62 2511.34 -5562.62 2511.34M6380.16 -973.434C6380.16 -973.434 5718.03 -246.29 3454.52 421.743C1191.01 1089.78 -791.187 478.776 -2736.52 1011.74C-4681.85 1544.71 -5547.46 2529.04 -5547.46 2529.04M6389.87 -956.347C6389.87 -956.347 5728.23 -227.916 3465.28 440.345C1202.34 1108.61 -779.043 498.888 -2723.16 1030.89C-4667.28 1562.89 -5532.4 2546.74 -5532.4 2546.74M6399.47 -939.273C6399.47 -939.273 5738.3 -209.553 3475.93 458.929C1213.55 1127.41 -767.007 518.993 -2709.91 1050.02C-4652.8 1581.04 -5517.45 2564.42 -5517.45 2564.42M6408.97 -922.2C6408.97 -922.2 5748.28 -191.19 3486.47 477.517C1224.67 1146.22 -755.078 539.091 -2696.76 1069.14C-4638.43 1599.2 -5502.6 2582.1 -5502.6 2582.1M6418.37 -905.129C6418.37 -905.129 5758.16 -172.832 3496.92 496.097C1235.69 1165.02 -743.247 559.186 -2683.71 1088.27C-4624.18 1617.35 -5487.86 2599.78 -5487.86 2599.78M6427.66 -888.064C6427.66 -888.064 5767.92 -154.478 3507.26 514.677C1246.59 1183.83 -731.521 579.282 -2670.76 1107.39C-4610.01 1635.51 -5473.21 2617.46 -5473.21 2617.46M6436.85 -870.997C6436.85 -870.997 5777.6 -136.121 3517.5 533.254C1257.4 1202.63 -719.895 599.368 -2657.93 1126.51C-4595.96 1653.65 -5458.67 2635.13 -5458.67 2635.13M6445.96 -853.921C6445.96 -853.921 5787.18 -117.757 3527.66 551.835C1268.14 1221.43 -708.344 619.465 -2645.16 1145.64C-4581.97 1671.81 -5444.21 2652.81 -5444.21 2652.81M6454.97 -836.841C6454.97 -836.841 5796.67 -99.3865 3537.72 570.432C1278.77 1240.25 -696.906 639.579 -2632.51 1164.77C-4568.11 1689.97 -5429.86 2670.5 -5429.86 2670.5M6463.89 -819.75C6463.89 -819.75 5806.07 -81.009 3547.68 589.032C1289.3 1259.07 -685.557 659.694 -2619.94 1183.91C-4554.32 1708.14 -5415.59 2688.19 -5415.59 2688.19M6472.72 -802.652C6472.72 -802.652 5815.38 -62.6224 3557.56 607.644C1299.75 1277.91 -674.291 679.823 -2607.45 1203.07C-4540.61 1726.32 -5401.4 2705.91 -5401.4 2705.91M6481.46 -785.532C6481.46 -785.532 5824.6 -44.2134 3567.35 626.273C1310.11 1296.76 -663.117 699.961 -2595.06 1222.25C-4527 1744.53 -5387.31 2723.63 -5387.31 2723.63M6490.11 -768.397C6490.11 -768.397 5833.73 -25.7888 3577.05 644.923C1320.38 1315.64 -652.02 720.125 -2582.75 1241.43C-4513.48 1762.74 -5373.3 2741.37 -5373.3 2741.37M6498.69 -751.244C6498.69 -751.244 5842.79 -7.34891 3586.69 663.583C1330.58 1334.52 -641.014 740.304 -2570.52 1260.65C-4500.03 1780.99 -5359.37 2759.14 -5359.37 2759.14M6507.19 -734.063C6507.19 -734.063 5851.77 11.1215 3596.23 682.28C1340.7 1353.44 -630.083 760.51 -2558.37 1279.88C-4486.67 1799.24 -5345.52 2776.93 -5345.52 2776.93M6515.61 -716.863C6515.61 -716.863 5860.66 29.6109 3605.7 700.989C1350.74 1372.37 -619.234 780.735 -2546.31 1299.13C-4473.38 1817.52 -5331.76 2794.72 -5331.76 2794.72M6523.95 -699.631C6523.95 -699.631 5869.48 48.1331 3615.09 719.737C1360.7 1391.34 -608.456 800.998 -2534.31 1318.42C-4460.17 1835.84 -5318.07 2812.57 -5318.07 2812.57M6532.22 -682.366C6532.22 -682.366 5878.23 66.6843 3624.4 738.51C1370.58 1410.33 -597.755 821.288 -2522.4 1337.73C-4447.04 1854.18 -5304.45 2830.43 -5304.45 2830.43M6540.41 -665.069C6540.41 -665.069 5886.9 85.2703 3633.64 757.322C1380.39 1429.37 -587.129 841.608 -2510.55 1357.09C-4433.98 1872.57 -5290.91 2848.35 -5290.91 2848.35M6548.54 -647.738C6548.54 -647.738 5895.51 103.89 3642.83 776.159C1390.15 1448.43 -576.555 861.961 -2498.76 1376.47C-4420.96 1890.97 -5277.42 2866.28 -5277.42 2866.28M6556.6 -630.369C6556.6 -630.369 5904.04 122.549 3651.93 795.044C1399.82 1467.54 -566.063 882.362 -2487.06 1395.89C-4408.05 1909.42 -5264.01 2884.26 -5264.01 2884.26M6564.6 -612.959C6564.6 -612.959 5912.52 141.249 3660.98 813.964C1409.44 1486.68 -555.636 902.799 -2475.41 1415.36C-4395.18 1927.92 -5250.67 2902.28 -5250.67 2902.28M6572.53 -595.504C6572.53 -595.504 5920.94 159.995 3669.96 832.926C1418.99 1505.86 -545.272 923.278 -2463.83 1434.86C-4382.38 1946.45 -5237.38 2920.34 -5237.38 2920.34M6580.4 -578.002C6580.4 -578.002 5929.28 178.788 3678.88 851.945C1428.47 1525.1 -534.967 943.805 -2452.3 1454.42C-4369.64 1965.03 -5224.16 2938.44 -5224.16 2938.44M6588.21 -560.452C6588.21 -560.452 5937.57 197.627 3687.74 871.003C1437.9 1544.38 -524.719 964.386 -2440.84 1474.03C-4356.96 1983.67 -5211 2956.61 -5211 2956.61M6595.97 -542.847C6595.97 -542.847 5945.8 216.521 3696.55 890.122C1447.29 1563.72 -514.524 985.013 -2429.43 1493.69C-4344.34 2002.36 -5197.89 2974.82 -5197.89 2974.82M6603.67 -525.189C6603.67 -525.189 5953.99 235.465 3705.3 909.288C1456.61 1583.11 -504.393 1005.7 -2418.08 1513.4C-4331.77 2021.1 -5184.83 2993.09 -5184.83 2993.09M6611.32 -507.478C6611.32 -507.478 5962.12 254.466 3714 928.515C1465.88 1602.56 -494.305 1026.43 -2406.78 1533.16C-4319.24 2039.89 -5171.84 3011.4 -5171.84 3011.4M6618.93 -489.703C6618.93 -489.703 5970.2 273.531 3722.65 947.799C1475.09 1622.07 -484.274 1047.23 -2395.52 1552.99C-4306.77 2058.75 -5158.88 3029.78 -5158.88 3029.78M6626.47 -471.867C6626.47 -471.867 5978.22 292.657 3731.24 967.151C1484.27 1641.65 -474.285 1068.09 -2384.32 1572.88C-4294.35 2077.67 -5145.98 3048.22 -5145.98 3048.22M6633.99 -453.969C6633.99 -453.969 5986.22 311.841 3739.8 986.557C1493.39 1661.27 -464.344 1089.02 -2373.16 1592.83C-4281.97 2096.64 -5133.12 3066.73 -5133.12 3066.73M6641.45 -436.004C6641.45 -436.004 5994.16 331.095 3748.31 1006.04C1502.47 1680.98 -454.452 1110.01 -2362.05 1612.86C-4269.65 2115.69 -5120.31 3085.31 -5120.31 3085.31M6648.87 -417.965C6648.87 -417.965 6002.06 350.424 3756.79 1025.59C1511.51 1700.75 -444.59 1131.08 -2350.97 1632.94C-4257.35 2134.81 -5107.53 3103.95 -5107.53 3103.95M6656.25 -399.853C6656.25 -399.853 6009.92 369.824 3765.22 1045.21C1520.52 1720.6 -434.768 1152.22 -2339.94 1653.11C-4245.1 2154.01 -5094.8 3122.67 -5094.8 3122.67M6663.61 -381.669C6663.61 -381.669 6017.76 389.295 3773.62 1064.9C1529.49 1740.51 -424.981 1173.42 -2328.94 1673.35C-4232.88 2173.27 -5082.1 3141.47 -5082.1 3141.47M6670.91 -363.406C6670.91 -363.406 6025.54 408.847 3781.98 1084.68C1538.41 1760.51 -415.24 1194.71 -2317.97 1693.67C-4220.71 2192.62 -5069.44 3160.33 -5069.44 3160.33M6678.19 -345.063C6678.19 -345.063 6033.29 428.48 3790.3 1104.53C1547.31 1780.59 -405.529 1216.08 -2307.05 1714.06C-4208.57 2212.05 -5056.82 3179.29 -5056.82 3179.29M6685.44 -326.639C6685.44 -326.639 6041.02 448.193 3798.6 1124.47C1556.18 1800.74 -395.854 1237.53 -2296.15 1734.54C-4196.44 2231.55 -5044.22 3198.31 -5044.22 3198.31M6692.66 -308.128C6692.66 -308.128 6048.72 467.991 3806.87 1144.49C1565.02 1820.99 -386.19 1259.07 -2285.27 1755.1C-4184.36 2251.14 -5031.64 3217.43 -5031.64 3217.43M6699.86 -289.525C6699.86 -289.525 6056.4 487.883 3815.12 1164.6C1573.84 1841.32 -376.562 1280.69 -2274.42 1775.76C-4172.28 2270.83 -5019.09 3236.64 -5019.09 3236.64M6707.03 -270.835C6707.03 -270.835 6064.05 507.862 3823.34 1184.81C1582.63 1861.75 -366.955 1302.41 -2263.6 1796.51C-4160.25 2290.61 -5006.57 3255.95 -5006.57 3255.95M6714.18 -252.055C6714.18 -252.055 6071.68 527.932 3831.54 1205.1C1591.4 1882.26 -357.373 1324.23 -2252.8 1817.34C-4148.23 2310.46 -4994.07 3275.33 -4994.07 3275.33M6721.31 -233.165C6721.31 -233.165 6079.29 548.114 3839.71 1225.5C1600.14 1902.89 -347.805 1346.14 -2242.02 1838.28C-4136.24 2330.43 -4981.59 3294.83 -4981.59 3294.83M6728.43 -214.189C6728.43 -214.189 6086.88 568.373 3847.88 1245.99C1608.87 1923.6 -338.262 1368.14 -2231.26 1859.32C-4124.25 2350.49 -4969.12 3314.41 -4969.12 3314.41M6735.53 -195.108C6735.53 -195.108 6094.46 588.75 3856.02 1266.58C1617.59 1944.42 -328.73 1390.25 -2220.51 1880.45C-4112.28 2370.65 -4956.67 3334.1 -4956.67 3334.1M6742.6 -175.921C6742.6 -175.921 6102.02 609.227 3864.16 1287.28C1626.29 1965.34 -319.211 1412.45 -2209.77 1901.69C-4100.34 2390.92 -4944.24 3353.89 -4944.24 3353.89M6749.68 -156.633C6749.68 -156.633 6109.57 629.804 3872.27 1308.08C1634.98 1986.36 -309.707 1434.78 -2199.05 1923.04C-4088.39 2411.3 -4931.82 3373.79 -4931.82 3373.79M6756.75 -137.232C6756.75 -137.232 6117.12 650.492 3880.4 1328.99C1643.67 2007.49 -300.198 1457.2 -2188.33 1944.49C-4076.46 2431.78 -4919.4 3393.79 -4919.4 3393.79M6763.81 -117.72C6763.81 -117.72 6124.66 671.293 3888.5 1350.02C1652.35 2028.74 -290.706 1479.74 -2177.61 1966.06C-4064.52 2452.37 -4906.99 3413.92 -4906.99 3413.92M6770.86 -98.0929C6770.86 -98.0929 6132.19 692.209 3896.6 1371.15C1661.02 2050.1 -281.22 1502.39 -2166.92 1987.73C-4052.61 2473.08 -4894.59 3434.15 -4894.59 3434.15M6777.91 -78.3457C6777.91 -78.3457 6139.71 713.246 3904.7 1392.42C1669.69 2071.59 -271.735 1525.17 -2156.21 2009.54C-4040.69 2493.91 -4882.19 3454.51 -4882.19 3454.51M6784.96 -58.4778C6784.96 -58.4778 6147.25 734.4 3912.8 1413.79C1678.35 2093.18 -262.257 1548.06 -2145.51 2031.46C-4028.77 2514.86 -4869.79 3474.99 -4869.79 3474.99M6792.02 -38.492C6792.02 -38.492 6154.78 755.676 3920.9 1435.29C1687.02 2114.9 -252.762 1571.07 -2134.81 2053.5C-4016.85 2535.93 -4857.38 3495.57 -4857.38 3495.57M6799.07 -18.3799C6799.07 -18.3799 6162.32 777.077 3929.02 1456.91C1695.72 2136.75 -243.267 1594.2 -2124.09 2075.66C-4004.91 2557.12 -4844.97 3516.29 -4844.97 3516.29M6806.14 1.85894C6806.14 1.85894 6169.85 798.605 3937.12 1478.66C1704.39 2158.72 -233.774 1617.47 -2113.38 2097.95C-3992.99 2578.44 -4832.56 3537.14 -4832.56 3537.14M6813.21 22.2279C6813.21 22.2279 6177.41 820.26 3945.25 1500.54C1713.08 2180.83 -224.263 1640.87 -2102.66 2120.38C-3981.05 2599.88 -4820.13 3558.11 -4820.13 3558.11M6820.3 42.7264C6820.3 42.7264 6184.97 842.049 3953.38 1522.55C1721.78 2203.06 -214.745 1664.39 -2091.92 2142.94C-3969.1 2621.48 -4807.7 3579.23 -4807.7 3579.23M6827.39 63.3694C6827.39 63.3694 6192.55 863.98 3961.53 1544.71C1730.5 2225.44 -205.214 1688.06 -2081.17 2165.63C-3957.13 2643.2 -4795.25 3600.48 -4795.25 3600.48M6834.51 84.1418C6834.51 84.1418 6200.14 886.042 3969.69 1566.99C1739.23 2247.94 -195.674 1711.86 -2070.41 2188.46C-3945.15 2665.06 -4782.79 3621.86 -4782.79 3621.86M6841.63 105.058C6841.63 105.058 6207.75 908.245 3977.87 1589.42C1747.99 2270.6 -186.104 1735.8 -2059.63 2211.43C-3933.15 2687.05 -4770.3 3643.38 -4770.3 3643.38M6848.79 126.12C6848.79 126.12 6215.38 930.598 3986.07 1611.99C1756.75 2293.39 -176.523 1759.88 -2048.83 2234.54C-3921.14 2709.2 -4757.81 3665.05 -4757.81 3665.05M6855.95 147.328C6855.95 147.328 6223.02 953.094 3994.28 1634.71C1765.54 2316.34 -166.922 1784.12 -2038.01 2257.8C-3909.1 2731.48 -4745.29 3686.86 -4745.29 3686.86M6863.15 168.681C6863.15 168.681 6230.69 975.736 4002.52 1657.58C1774.35 2339.42 -157.293 1808.5 -2027.16 2281.21C-3897.04 2753.92 -4732.74 3708.82 -4732.74 3708.82M6870.37 190.186C6870.37 190.186 6238.4 998.529 4010.79 1680.6C1783.19 2362.67 -147.638 1833.03 -2016.29 2304.77C-3884.94 2776.5 -4720.17 3730.93 -4720.17 3730.93M6877.61 211.847C6877.61 211.847 6246.12 1021.48 4019.09 1703.77C1792.06 2386.05 -137.958 1857.71 -2005.4 2328.48C-3872.83 2799.25 -4707.58 3753.2 -4707.58 3753.2M6884.89 233.66C6884.89 233.66 6253.87 1044.58 4027.41 1727.1C1800.95 2409.6 -128.247 1882.56 -1994.47 2352.35C-3860.7 2822.15 -4694.95 3775.63 -4694.95 3775.63M6892.2 255.638C6892.2 255.638 6261.66 1067.85 4035.78 1750.58C1809.89 2433.31 -118.501 1907.56 -1983.5 2376.38C-3848.5 2845.21 -4682.28 3798.21 -4682.28 3798.21M6899.55 277.773C6899.55 277.773 6269.49 1091.27 4044.17 1774.22C1818.85 2457.18 -108.719 1932.72 -1972.5 2400.57C-3836.29 2868.42 -4669.58 3820.95 -4669.58 3820.95M6906.93 300.074C6906.93 300.074 6277.35 1114.87 4052.6 1798.04C1827.85 2481.21 -98.9051 1958.05 -1961.47 2424.92C-3824.03 2891.8 -4656.85 3843.86 -4656.85 3843.86M6914.35 322.544C6914.35 322.544 6285.25 1138.63 4061.07 1822.02C1836.89 2505.42 -89.0507 1983.54 -1950.4 2449.45C-3811.75 2915.36 -4644.08 3866.94 -4644.08 3866.94M6921.81 345.179C6921.81 345.179 6293.19 1162.55 4069.58 1846.17C1845.96 2529.79 -79.1547 2009.21 -1939.29 2474.14C-3799.42 2939.07 -4631.27 3890.18 -4631.27 3890.18M6929.32 367.988C6929.32 367.988 6301.18 1186.65 4078.13 1870.49C1855.09 2554.33 -69.2102 2035.04 -1928.13 2499C-3787.05 2962.96 -4618.42 3913.6 -4618.42 3913.6M6936.87 390.975C6936.87 390.975 6309.21 1210.92 4086.74 1894.99C1864.27 2579.05 -59.2216 2061.05 -1916.93 2524.05C-3774.63 2987.04 -4605.51 3937.19 -4605.51 3937.19M6944.47 414.135C6944.47 414.135 6317.29 1235.37 4095.38 1919.66C1873.48 2603.95 -49.1958 2087.24 -1905.67 2549.25C-3762.15 3011.27 -4592.56 3960.96 -4592.56 3960.96M6952.12 437.479C6952.12 437.479 6325.41 1260 4104.08 1944.52C1882.75 2629.03 -39.1172 2113.6 -1894.38 2574.65C-3749.65 3035.7 -4579.57 3984.91 -4579.57 3984.91M6959.81 461.001C6959.81 461.001 6333.58 1284.82 4112.82 1969.55C1892.06 2654.28 -28.9819 2140.16 -1883.03 2600.23C-3737.07 3060.3 -4566.51 4009.03 -4566.51 4009.03M6967.57 484.71C6967.57 484.71 6341.82 1309.81 4121.63 1994.77C1901.44 2679.73 -18.7905 2166.9 -1871.63 2626C-3724.46 3085.1 -4553.41 4033.35 -4553.41 4033.35M6975.38 508.606C6975.38 508.606 6350.11 1335 4130.49 2020.18C1910.86 2705.36 -8.54756 2193.81 -1860.16 2651.94C-3711.77 3110.07 -4540.24 4057.86 -4540.24 4057.86M6983.25 532.693C6983.25 532.693 6358.46 1360.37 4139.41 2045.78C1920.35 2731.18 1.75945 2220.93 -1848.64 2678.09C-3699.04 3135.25 -4527.03 4082.56 -4527.03 4082.56M6991.43 557.61C6991.43 557.61 6367.12 1386.58 4148.64 2072.2C1930.16 2757.82 12.381 2248.87 -1836.8 2705.05C-3685.98 3161.24 -4513.49 4108.07 -4513.49 4108.07M6999.89 583.685C6999.89 583.685 6376.06 1413.94 4158.15 2099.79C1940.24 2785.64 23.266 2277.98 -1824.69 2733.19C-3672.66 3188.4 -4499.68 4134.76 -4499.68 4134.76M7008.18 610.007C7008.18 610.007 6384.82 1441.55 4167.48 2127.62C1950.14 2813.69 33.9861 2307.32 -1812.76 2761.56C-3659.5 3215.81 -4486.05 4161.69 -4486.05 4161.69M7016.31 636.559C7016.31 636.559 6393.43 1469.39 4176.66 2155.69C1959.89 2841.99 44.5473 2336.9 -1800.98 2790.17C-3646.51 3243.44 -4472.57 4188.85 -4472.57 4188.85M7024.27 663.342C7024.27 663.342 6401.87 1497.47 4185.67 2183.98C1969.47 2870.5 54.9463 2366.71 -1789.37 2819C-3633.68 3271.3 -4459.26 4216.24 -4459.26 4216.24M7032.08 690.348C7032.08 690.348 6410.15 1525.76 4194.52 2212.5C1978.89 2899.23 65.1864 2396.74 -1777.91 2848.06C-3621 3299.39 -4446.1 4243.85 -4446.1 4243.85M7039.73 717.575C7039.73 717.575 6418.29 1554.27 4203.22 2241.24C1988.16 2928.2 75.2712 2426.99 -1766.61 2877.34C-3608.49 3327.7 -4433.1 4271.69 -4433.1 4271.69M7047.22 745.003C7047.22 745.003 6426.26 1582.99 4211.77 2270.18C1997.28 2957.36 85.2011 2457.44 -1755.46 2906.82C-3596.12 3356.21 -4420.25 4299.72 -4420.25 4299.72M7054.55 772.633C7054.55 772.633 6434.07 1611.91 4220.15 2299.32C2006.23 2986.73 94.9652 2488.1 -1744.47 2936.51C-3583.91 3384.93 -4407.57 4327.97 -4407.57 4327.97M7061.74 800.462C7061.74 800.462 6441.73 1641.03 4228.38 2328.66C2015.03 3016.28 104.579 2518.96 -1733.64 2966.39C-3571.87 3413.83 -4395.04 4356.39 -4395.04 4356.39M7068.76 828.476C7068.76 828.476 6449.24 1670.34 4236.45 2358.19C2023.67 3046.04 114.039 2549.99 -1722.97 2996.46C-3559.97 3442.93 -4382.66 4385.02 -4382.66 4385.02M7075.63 856.669C7075.63 856.669 6456.59 1699.82 4244.37 2387.89C2032.16 3075.97 123.344 2581.21 -1712.44 3026.71C-3548.23 3472.21 -4370.44 4413.82 -4370.44 4413.82M7082.35 885.04C7082.35 885.04 6463.79 1729.48 4252.14 2417.78C2040.5 3106.07 132.503 2612.61 -1702.07 3057.14C-3536.65 3501.66 -4358.37 4442.8 -4358.37 4442.8M7088.92 913.575C7088.92 913.575 6470.83 1759.3 4259.76 2447.82C2048.69 3136.34 141.512 2644.17 -1691.85 3087.72C-3525.21 3531.27 -4346.45 4471.94 -4346.45 4471.94M7095.35 942.272C7095.35 942.272 6477.74 1789.29 4267.23 2478.03C2056.73 3166.77 150.367 2675.89 -1681.77 3118.48C-3513.91 3561.06 -4334.67 4501.25 -4334.67 4501.25M7101.62 971.125C7101.62 971.125 6484.48 1819.43 4274.55 2508.39C2064.62 3197.35 159.071 2707.77 -1671.86 3149.38C-3502.78 3590.99 -4323.05 4530.7 -4323.05 4530.7M7107.74 1000.12C7107.74 1000.12 6491.09 1849.71 4281.73 2538.9C2072.37 3228.09 167.624 2739.8 -1662.08 3180.43C-3491.78 3621.06 -4311.57 4560.31 -4311.57 4560.31M7113.72 1029.26C7113.72 1029.26 6497.54 1880.14 4288.75 2569.55C2079.96 3258.96 176.035 2771.96 -1652.45 3211.62C-3480.94 3651.29 -4300.25 4590.05 -4300.25 4590.05M7119.56 1058.53C7119.56 1058.53 6503.86 1910.7 4295.63 2600.32C2087.42 3289.96 184.307 2804.25 -1642.96 3242.94C-3470.24 3681.63 -4289.06 4619.92 -4289.06 4619.92M7125.24 1087.92C7125.24 1087.92 6510.03 1941.38 4302.37 2631.24C2094.71 3321.09 192.427 2836.67 -1633.63 3274.39C-3459.68 3712.12 -4278.03 4649.93 -4278.03 4649.93M7130.79 1117.43C7130.79 1117.43 6516.05 1972.18 4308.98 2662.26C2101.9 3352.34 200.42 2869.21 -1624.42 3305.96C-3449.26 3742.71 -4267.12 4680.06 -4267.12 4680.06M7136.2 1147.05C7136.2 1147.05 6521.94 2003.09 4315.43 2693.39C2108.91 3383.69 208.259 2901.86 -1615.36 3337.63C-3438.99 3773.4 -4256.37 4710.27 -4256.37 4710.27M7141.47 1176.78C7141.47 1176.78 6527.69 2034.11 4321.74 2724.63C2115.8 3415.15 215.958 2934.61 -1606.45 3369.42C-3428.85 3804.22 -4245.75 4740.62 -4245.75 4740.62M7146.59 1206.61C7146.59 1206.61 6533.29 2065.22 4327.91 2755.97C2122.54 3446.71 223.51 2967.46 -1597.67 3401.3C-3418.86 3835.13 -4235.27 4771.05 -4235.27 4771.05M7151.58 1236.52C7151.58 1236.52 6538.75 2096.43 4333.95 2787.39C2129.15 3478.36 230.93 3000.41 -1589.04 3433.26C-3409.01 3866.12 -4224.94 4801.57 -4224.94 4801.57M7156.43 1266.53C7156.43 1266.53 6544.08 2127.72 4339.85 2818.91C2135.62 3510.1 238.221 3033.44 -1580.53 3465.33C-3399.28 3897.21 -4214.74 4832.18 -4214.74 4832.18M7161.15 1296.61C7161.15 1296.61 6549.28 2159.09 4345.62 2850.5C2141.96 3541.91 245.38 3066.54 -1572.16 3497.45C-3389.7 3928.36 -4204.67 4862.86 -4204.67 4862.86M7165.73 1326.75C7165.73 1326.75 6554.34 2190.52 4351.25 2882.16C2148.16 3573.8 252.392 3099.71 -1563.92 3529.65C-3380.24 3959.6 -4194.73 4893.62 -4194.73 4893.62M7170.18 1356.97C7170.18 1356.97 6559.27 2222.03 4356.75 2913.88C2154.23 3605.74 259.274 3132.95 -1555.83 3561.93C-3370.93 3990.9 -4184.94 4924.45 -4184.94 4924.45M7174.49 1387.23C7174.49 1387.23 6564.06 2253.58 4362.11 2945.66C2160.16 3637.74 266.024 3166.24 -1547.86 3594.24C-3361.74 4022.23 -4175.27 4955.31 -4175.27 4955.31M7178.68 1417.55C7178.68 1417.55 6568.73 2285.18 4367.34 2977.49C2165.96 3669.79 272.638 3199.59 -1540.03 3626.61C-3352.69 4053.64 -4165.73 4986.24 -4165.73 4986.24M7182.73 1447.91C7182.73 1447.91 6573.26 2316.83 4372.45 3009.37C2171.63 3701.9 279.125 3232.98 -1532.32 3659.04C-3343.77 4085.09 -4156.33 5017.21 -4156.33 5017.21M7186.66 1478.3C7186.66 1478.3 6577.67 2348.52 4377.42 3041.27C2177.18 3734.01 285.487 3266.39 -1524.74 3691.47C-3334.97 4116.55 -4147.05 5048.21 -4147.05 5048.21M7190.46 1508.72C7190.46 1508.72 6581.94 2380.23 4382.27 3073.2C2182.6 3766.17 291.726 3299.84 -1517.29 3723.95C-3326.31 4148.06 -4137.9 5079.24 -4137.9 5079.24M7194.13 1539.17C7194.13 1539.17 6586.09 2411.97 4386.99 3105.16C2187.89 3798.35 297.832 3333.31 -1509.97 3756.45C-3317.76 4179.59 -4128.87 5110.29 -4128.87 5110.29M7197.68 1569.63C7197.68 1569.63 6590.12 2443.72 4391.59 3137.13C2193.05 3830.54 303.811 3366.79 -1502.77 3788.96C-3309.36 4211.13 -4119.98 5141.35 -4119.98 5141.35M7201.1 1600.1C7201.1 1600.1 6594.02 2475.47 4396.06 3169.11C2198.1 3862.75 309.67 3400.29 -1495.69 3821.49C-3301.06 4242.68 -4111.2 5172.44 -4111.2 5172.44M7204.4 1630.57C7204.4 1630.57 6597.79 2507.23 4400.4 3201.09C2203.01 3894.94 315.39 3433.78 -1488.75 3854.01C-3292.9 4274.23 -4102.56 5203.51 -4102.56 5203.51M7207.57 1661.02C7207.57 1661.02 6601.45 2538.98 4404.63 3233.06C2207.81 3927.14 321.004 3467.27 -1481.92 3886.52C-3284.85 4305.76 -4094.03 5234.57 -4094.03 5234.57M7210.63 1691.47C7210.63 1691.47 6604.99 2570.71 4408.73 3265.01C2212.47 3959.32 326.495 3500.74 -1475.21 3919.02C-3276.92 4337.3 -4085.63 5265.63 -4085.63 5265.63M7213.57 1721.9C7213.57 1721.9 6608.4 2602.43 4412.72 3296.96C2217.04 3991.49 331.871 3534.2 -1468.62 3951.51C-3269.12 4368.82 -4077.34 5296.67 -4077.34 5296.67M7216.39 1752.3C7216.39 1752.3 6611.7 2634.12 4416.59 3328.87C2221.48 4023.62 337.128 3567.62 -1462.15 3983.96C-3261.43 4400.29 -4069.17 5327.67 -4069.17 5327.67M7219.09 1782.67C7219.09 1782.67 6614.88 2665.78 4420.35 3360.75C2225.81 4055.73 342.268 3601.02 -1455.8 4016.39C-3253.86 4431.75 -4061.11 5358.66 -4061.11 5358.66M7221.68 1812.99C7221.68 1812.99 6617.94 2697.39 4423.97 3392.58C2230 4087.78 347.282 3634.37 -1449.56 4048.76C-3246.41 4463.15 -4053.18 5389.58 -4053.18 5389.58M7224.15 1843.28C7224.15 1843.28 6620.9 2728.96 4427.5 3424.38C2234.09 4119.8 352.183 3667.68 -1443.44 4081.1C-3239.07 4494.52 -4045.36 5420.48 -4045.36 5420.48M7226.5 1873.5C7226.5 1873.5 6623.73 2760.47 4430.9 3456.11C2238.06 4151.76 356.969 3700.93 -1437.43 4113.37C-3231.85 4525.82 -4037.66 5451.3 -4037.66 5451.3M7228.75 1903.66C7228.75 1903.66 6626.45 2791.92 4434.2 3487.79C2241.94 4183.65 361.656 3734.12 -1431.53 4145.59C-3224.73 4557.07 -4030.05 5482.08 -4030.05 5482.08M7230.88 1933.76C7230.88 1933.76 6629.06 2823.31 4437.37 3519.39C2245.69 4215.48 366.218 3767.24 -1425.75 4177.74C-3217.72 4588.24 -4022.57 5512.77 -4022.57 5512.77M7232.9 1963.78C7232.9 1963.78 6631.56 2854.62 4440.44 3550.93C2249.32 4247.24 370.676 3800.28 -1420.08 4209.82C-3210.84 4619.35 -4015.2 5543.41 -4015.2 5543.41M7234.81 1993.71C7234.81 1993.71 6633.95 2885.84 4443.4 3582.37C2252.85 4278.9 375.022 3833.24 -1414.52 4241.8C-3204.07 4650.37 -4007.94 5573.94 -4007.94 5573.94M7236.62 2023.56C7236.62 2023.56 6636.24 2916.97 4446.26 3613.73C2256.28 4310.49 379.262 3866.12 -1409.06 4273.71C-3197.39 4681.29 -4000.78 5604.4 -4000.78 5604.4M7238.31 2053.31C7238.31 2053.31 6638.42 2948.01 4449 3644.99C2259.58 4341.98 383.391 3898.89 -1403.72 4305.51C-3190.83 4712.13 -3993.74 5634.76 -3993.74 5634.76M7239.91 2082.95C7239.91 2082.95 6640.49 2978.95 4451.64 3676.15C2262.8 4373.35 387.412 3931.56 -1398.47 4337.21C-3184.36 4742.85 -3986.79 5665.01 -3986.79 5665.01M7241.4 2112.49C7241.4 2112.49 6642.45 3009.77 4454.18 3707.2C2265.92 4404.62 391.34 3964.12 -1393.33 4368.79C-3178.01 4773.47 -3979.95 5695.15 -3979.95 5695.15M7242.78 2141.91C7242.78 2141.91 6644.31 3040.48 4456.62 3738.13C2268.92 4435.77 395.16 3996.57 -1388.29 4400.27C-3171.74 4803.97 -3973.21 5725.18 -3973.21 5725.18M7244.06 2171.21C7244.06 2171.21 6646.08 3071.07 4458.95 3768.94C2271.82 4466.8 398.877 4028.89 -1383.36 4431.62C-3165.6 4834.35 -3966.59 5755.08 -3966.59 5755.08M7245.24 2200.38C7245.24 2200.38 6647.74 3101.52 4461.18 3799.61C2274.61 4497.71 402.491 4061.08 -1378.53 4462.84C-3159.55 4864.6 -3960.05 5784.86 -3960.05 5784.86M7246.32 2229.4C7246.32 2229.4 6649.3 3131.84 4463.3 3830.15C2277.31 4528.47 406.005 4093.14 -1373.8 4493.92C-3153.61 4894.71 -3953.63 5814.49 -3953.63 5814.49M7247.3 2258.29C7247.3 2258.29 6650.75 3162.02 4465.33 3860.55C2279.9 4559.08 409.417 4125.05 -1369.17 4524.86C-3147.75 4924.68 -3947.29 5843.99 -3947.29 5843.99M7248.19 2287.01C7248.19 2287.01 6652.11 3192.04 4467.27 3890.79C2282.42 4589.55 412.739 4156.81 -1364.63 4555.64C-3142 4954.48 -3941.06 5873.32 -3941.06 5873.32M7248.97 2315.59C7248.97 2315.59 6653.38 3221.89 4469.1 3920.87C2284.82 4619.85 415.955 4188.4 -1360.2 4586.27C-3136.35 4984.14 -3934.92 5902.5 -3934.92 5902.5M7249.67 2344C7249.67 2344 6654.55 3251.59 4470.84 3950.8C2287.13 4650 419.084 4219.84 -1355.85 4616.74C-3130.78 5013.64 -3928.88 5931.52 -3928.88 5931.52M7250.26 2372.23C7250.26 2372.23 6655.63 3281.11 4472.49 3980.54C2289.35 4679.96 422.115 4251.09 -1351.61 4647.02C-3125.33 5042.94 -3922.94 5960.36 -3922.94 5960.36M7250.77 2400.28C7250.77 2400.28 6656.61 3310.46 4474.04 4010.11C2291.48 4709.76 425.058 4282.18 -1347.44 4677.13C-3119.94 5072.08 -3917.07 5989.02 -3917.07 5989.02M7251.18 2428.15C7251.18 2428.15 6657.5 3339.62 4475.5 4039.49C2293.5 4739.36 427.898 4313.07 -1343.39 4707.05C-3114.68 5101.03 -3911.31 6017.49 -3911.31 6017.49M7251.51 2455.82C7251.51 2455.82 6658.31 3368.58 4476.87 4068.67C2295.44 4768.77 430.659 4343.77 -1339.41 4736.78C-3109.47 5129.79 -3905.64 6045.78 -3905.64 6045.78M7251.74 2483.3C7251.74 2483.3 6659.02 3397.34 4478.16 4097.66C2297.3 4797.97 433.332 4374.27 -1335.52 4766.31C-3104.37 5158.34 -3900.05 6073.86 -3900.05 6073.86M7251.88 2510.57C7251.88 2510.57 6659.63 3425.9 4479.35 4126.43C2299.06 4826.97 435.9 4404.56 -1331.73 4795.62C-3099.36 5186.69 -3894.56 6101.72 -3894.56 6101.72M7251.94 2537.62C7251.94 2537.62 6660.18 3454.24 4480.45 4155C2300.73 4855.77 438.39 4434.64 -1328.02 4824.74C-3094.44 5214.83 -3889.15 6129.4 -3889.15 6129.4M7251.91 2564.46C7251.91 2564.46 6660.62 3482.36 4481.47 4183.35C2302.32 4884.33 440.797 4464.51 -1324.4 4853.63C-3089.6 5242.76 -3883.83 6156.84 -3883.83 6156.84M7251.79 2591.06C7251.79 2591.06 6660.99 3510.26 4482.41 4211.46C2303.83 4912.67 443.117 4494.14 -1320.86 4882.28C-3084.84 5270.43 -3878.6 6184.05 -3878.6 6184.05M7251.6 2617.43C7251.6 2617.43 6661.27 3537.91 4483.26 4239.34C2305.24 4940.77 445.352 4523.53 -1317.42 4910.7C-3080.18 5297.88 -3873.45 6211.02 -3873.45 6211.02M7251.31 2643.56C7251.31 2643.56 6661.46 3565.33 4484.02 4266.99C2306.59 4968.64 447.507 4552.68 -1314.04 4938.89C-3075.58 5325.1 -3868.37 6237.76 -3868.37 6237.76M7250.95 2669.44C7250.95 2669.44 6661.58 3592.5 4484.71 4294.37C2307.84 4996.25 449.579 4581.59 -1310.76 4966.82C-3071.09 5352.05 -3863.39 6264.24 -3863.39 6264.24M7250.51 2695.06C7250.51 2695.06 6661.62 3619.41 4485.32 4321.51C2309.02 5023.61 451.568 4610.24 -1307.54 4994.5C-3066.65 5378.76 -3858.48 6290.48 -3858.48 6290.48M7249.98 2720.43C7249.98 2720.43 6661.57 3646.07 4485.84 4348.39C2310.11 5050.71 453.473 4638.63 -1304.42 5021.92C-3062.32 5405.21 -3853.66 6316.45 -3853.66 6316.45M7249.38 2745.52C7249.38 2745.52 6661.44 3672.44 4486.29 4374.99C2311.13 5077.53 455.308 4666.75 -1301.37 5049.06C-3058.04 5431.38 -3848.9 6342.15 -3848.9 6342.15M7248.7 2770.33C7248.7 2770.33 6661.25 3698.55 4486.66 4401.31C2312.07 5104.08 457.063 4694.58 -1298.4 5075.93C-3053.86 5457.28 -3844.24 6367.57 -3844.24 6367.57M7247.95 2794.86C7247.95 2794.86 6660.98 3724.37 4486.95 4427.36C2312.93 5130.35 458.746 4722.14 -1295.49 5102.52C-3049.74 5482.89 -3839.63 6392.71 -3839.63 6392.71M7247.12 2819.1C7247.12 2819.1 6660.63 3749.9 4487.18 4453.11C2313.73 5156.32 460.36 4749.41 -1292.67 5128.81C-3045.7 5508.21 -3835.1 6417.55 -3835.1 6417.55M7246.21 2843.05C7246.21 2843.05 6660.19 3775.14 4487.32 4478.57C2314.44 5182 461.886 4776.38 -1289.93 5154.81C-3041.74 5533.24 -3830.66 6442.11 -3830.66 6442.11M7245.25 2866.68C7245.25 2866.68 6659.71 3800.06 4487.4 4503.71C2315.08 5207.37 463.349 4803.04 -1287.24 5180.5C-3037.84 5557.96 -3826.28 6466.35 -3826.28 6466.35M7244.2 2890.02C7244.2 2890.02 6659.14 3824.68 4487.4 4528.56C2315.66 5232.44 464.733 4829.41 -1284.64 5205.89C-3034.02 5582.37 -3821.98 6490.3 -3821.98 6490.3M7243.08 2913.02C7243.08 2913.02 6658.5 3848.98 4487.33 4553.08C2316.16 5257.18 466.047 4855.44 -1282.11 5230.95C-3030.26 5606.46 -3817.75 6513.91 -3817.75 6513.91M7241.9 2935.71C7241.9 2935.71 6657.79 3872.96 4487.19 4577.28C2316.59 5281.59 467.293 4881.15 -1279.65 5255.69C-3026.59 5630.23 -3813.59 6537.21 -3813.59 6537.21M7240.64 2958.07C7240.64 2958.07 6657.02 3896.6 4486.99 4601.14C2316.95 5305.69 468.484 4906.53 -1277.25 5280.1C-3022.97 5653.67 -3809.49 6560.16 -3809.49 6560.16M7239.33 2980.08C7239.33 2980.08 6656.18 3919.9 4486.72 4624.67C2317.26 5329.43 469.601 4931.57 -1274.91 5304.17C-3019.42 5676.77 -3805.45 6582.79 -3805.45 6582.79M7237.95 3001.75C7237.95 3001.75 6655.28 3942.86 4486.39 4647.85C2317.5 5352.85 470.652 4956.27 -1272.64 5327.9C-3015.94 5699.53 -3801.49 6605.07 -3801.49 6605.07M7236.49 3023.06C7236.49 3023.06 6654.3 3965.46 4485.98 4670.67C2317.66 5375.89 471.627 4980.61 -1270.44 5351.26C-3012.51 5721.9 -3797.59 6626.99 -3797.59 6626.99M7234.98 3044.02C7234.98 3044.02 6653.28 3987.71 4485.52 4693.15C2317.77 5398.59 472.552 5004.59 -1268.3 5374.27C-3009.16 5743.96 -3793.75 6648.55 -3793.75 6648.55M7233.41 3064.61C7233.41 3064.61 6652.18 4009.59 4484.99 4715.25C2317.82 5420.91 473.407 5028.21 -1266.23 5396.92C-3005.86 5765.63 -3789.97 6669.75 -3789.97 6669.75M7231.77 3084.84C7231.77 3084.84 6651.02 4031.1 4484.41 4736.99C2317.8 5442.87 474.21 5051.46 -1264.21 5419.19C-3002.64 5786.93 -3786.26 6690.58 -3786.26 6690.58M7230.08 3104.67C7230.08 3104.67 6649.8 4052.23 4483.76 4758.33C2317.72 5464.44 474.949 5074.32 -1262.26 5441.08C-2999.46 5807.85 -3782.6 6711.03 -3782.6 6711.03M7228.33 3124.12C7228.33 3124.12 6648.53 4072.96 4483.06 4779.29C2317.6 5485.62 475.639 5096.79 -1260.35 5462.58C-2996.34 5828.38 -3779 6731.08 -3779 6731.08M7226.51 3143.17C7226.51 3143.17 6647.2 4093.31 4482.29 4799.86C2317.39 5506.41 476.255 5118.87 -1258.51 5483.69C-2993.28 5848.51 -3775.46 6750.74 -3775.46 6750.74M7224.65 3161.83C7224.65 3161.83 6645.81 4113.24 4481.48 4820.02C2317.15 5526.79 476.83 5140.55 -1256.73 5504.4C-2990.28 5868.25 -3771.98 6770 -3771.98 6770M7222.73 3180.07C7222.73 3180.07 6644.36 4132.78 4480.61 4839.78C2316.85 5546.77 477.333 5161.83 -1255 5524.7C-2987.34 5887.58 -3768.55 6788.86 -3768.55 6788.86M7220.75 3197.91C7220.75 3197.91 6642.87 4151.9 4479.68 4859.13C2316.49 5566.35 477.792 5182.68 -1253.32 5544.59C-2984.44 5906.5 -3765.17 6807.3 -3765.17 6807.3M7218.72 3215.32C7218.72 3215.32 6641.32 4170.6 4478.7 4878.04C2316.09 5585.48 478.202 5203.11 -1251.7 5564.05C-2981.6 5924.99 -3761.85 6825.31 -3761.85 6825.31M7216.64 3232.3C7216.64 3232.3 6639.71 4188.87 4477.66 4896.53C2315.62 5604.19 478.55 5223.12 -1250.13 5583.08C-2978.81 5943.05 -3758.58 6842.9 -3758.58 6842.9M7214.51 3248.84C7214.51 3248.84 6638.06 4206.71 4476.58 4914.59C2315.11 5622.47 478.857 5242.69 -1248.61 5601.68C-2976.09 5960.67 -3755.36 6860.05 -3755.36 6860.05M7212.33 3264.94C7212.33 3264.94 6636.36 4224.09 4475.45 4932.2C2314.55 5640.31 479.112 5261.81 -1247.14 5619.83C-2973.39 5977.86 -3752.19 6876.75 -3752.19 6876.75M7210.1 3280.59C7210.1 3280.59 6634.61 4241.04 4474.27 4949.37C2313.93 5657.7 479.314 5280.49 -1245.72 5637.54C-2970.76 5994.58 -3749.07 6893.02 -3749.07 6893.02M7207.83 3295.79C7207.83 3295.79 6632.82 4257.52 4473.05 4966.07C2313.27 5674.62 479.472 5298.72 -1244.34 5654.79C-2968.15 6010.86 -3745.99 6908.82 -3745.99 6908.82M7205.5 3310.52C7205.5 3310.52 6630.97 4273.54 4471.77 4982.32C2312.57 5691.09 479.582 5316.48 -1243.02 5671.58C-2965.61 6026.68 -3742.96 6924.16 -3742.96 6924.16M7203.14 3324.78C7203.14 3324.78 6629.08 4289.09 4470.46 4998.09C2311.83 5707.08 479.652 5333.76 -1241.73 5687.89C-2963.12 6042.02 -3739.99 6939.02 -3739.99 6939.02M7200.73 3338.56C7200.73 3338.56 6627.16 4304.16 4469.1 5013.38C2311.04 5722.61 479.681 5350.57 -1240.48 5703.73C-2960.65 6056.89 -3737.04 6953.42 -3737.04 6953.42M7198.28 3351.87C7198.28 3351.87 6625.18 4318.76 4467.69 5028.2C2310.2 5737.64 479.662 5366.9 -1239.29 5719.09C-2958.23 6071.27 -3734.15 6967.33 -3734.15 6967.33M7195.78 3364.67C7195.78 3364.67 6623.16 4332.85 4466.24 5042.52C2309.33 5752.19 479.6 5382.74 -1238.13 5733.95C-2955.86 6085.17 -3731.28 6980.74 -3731.28 6980.74M7193.25 3376.98C7193.25 3376.98 6621.11 4346.45 4464.76 5056.33C2308.41 5766.22 479.504 5398.07 -1237.02 5748.31C-2953.53 6098.55 -3728.48 6993.66 -3728.48 6993.66M7190.67 3388.79C7190.67 3388.79 6619.02 4359.54 4463.23 5069.66C2307.45 5779.77 479.354 5412.9 -1235.94 5762.17C-2951.23 6111.45 -3725.69 7006.08 -3725.69 7006.08M7188.07 3400.08C7188.07 3400.08 6616.89 4372.12 4461.67 5082.46C2306.46 5792.79 479.181 5427.22 -1234.9 5775.51C-2948.98 6123.81 -3722.96 7017.97 -3722.96 7017.97M7185.42 3410.85C7185.42 3410.85 6614.72 4384.19 4460.08 5094.75C2305.45 5805.3 478.978 5441.02 -1233.88 5788.34C-2946.74 6135.67 -3720.23 7029.35 -3720.23 7029.35M7182.73 3421.1C7182.73 3421.1 6612.51 4395.73 4458.45 5106.5C2304.38 5817.28 478.726 5454.29 -1232.92 5800.65C-2944.57 6147 -3717.58 7040.21 -3717.58 7040.21M7180.02 3430.81C7180.02 3430.81 6610.28 4406.72 4456.78 5117.73C2303.27 5828.73 478.44 5467.03 -1231.99 5812.41C-2942.42 6157.79 -3714.95 7050.53 -3714.95 7050.53M7177.27 3439.99C7177.27 3439.99 6608 4417.19 4455.07 5128.41C2302.14 5839.64 478.124 5479.23 -1231.09 5823.64C-2940.3 6168.05 -3712.35 7060.31 -3712.35 7060.31M7174.48 3448.62C7174.48 3448.62 6605.7 4427.11 4453.33 5138.55C2300.97 5850 477.773 5490.88 -1230.23 5834.33C-2938.22 6177.77 -3709.78 7069.55 -3709.78 7069.55M7171.67 3456.69C7171.67 3456.69 6603.36 4436.47 4451.57 5148.14C2299.78 5859.81 477.388 5501.99 -1229.39 5844.45C-2936.16 6186.91 -3707.25 7078.23 -3707.25 7078.23M7168.83 3464.2C7168.83 3464.2 6600.99 4445.27 4449.77 5157.16C2298.55 5869.06 476.977 5512.52 -1228.58 5854.02C-2934.14 6195.51 -3704.74 7086.35 -3704.74 7086.35M7165.95 3471.16C7165.95 3471.16 6598.6 4453.51 4447.96 5165.63C2297.31 5877.74 476.546 5522.5 -1227.79 5863.02C-2932.13 6203.55 -3702.25 7093.91 -3702.25 7093.91M7163.05 3477.53C7163.05 3477.53 6596.18 4461.17 4446.1 5173.51C2296.02 5885.84 476.08 5531.9 -1227.05 5871.44C-2930.17 6210.99 -3699.81 7100.88 -3699.81 7100.88M7160.13 3483.31C7160.13 3483.31 6593.73 4468.25 4444.23 5180.81C2294.72 5893.37 475.589 5540.71 -1226.32 5879.29C-2928.22 6217.87 -3697.38 7107.28 -3697.38 7107.28M7157.18 3488.52C7157.18 3488.52 6591.26 4474.74 4442.33 5187.52C2293.39 5900.3 475.074 5548.94 -1225.62 5886.55C-2926.31 6224.15 -3694.98 7113.09 -3694.98 7113.09M7154.2 3493.13C7154.2 3493.13 6588.77 4480.63 4440.4 5193.65C2292.03 5906.66 474.533 5556.58 -1224.95 5893.21C-2924.43 6229.85 -3692.61 7118.31 -3692.61 7118.31M7151.21 3497.13C7151.21 3497.13 6586.25 4485.93 4438.45 5199.16C2290.64 5912.38 473.968 5563.6 -1224.29 5899.27C-2922.55 6234.93 -3690.26 7122.92 -3690.26 7122.92M7148.19 3500.52C7148.19 3500.52 6583.7 4490.61 4436.48 5204.07C2289.25 5917.52 473.383 5570.03 -1223.66 5904.72C-2920.7 6239.41 -3687.92 7126.92 -3687.92 7126.92M7145.15 3503.3C7145.15 3503.3 6581.15 4494.69 4434.49 5208.35C2287.83 5922.02 472.777 5575.83 -1223.04 5909.55C-2918.86 6243.27 -3685.61 7130.31 -3685.61 7130.31M7142.09 3505.46C7142.09 3505.46 6578.57 4498.13 4432.47 5212.02C2286.38 5925.92 472.148 5581.01 -1222.46 5913.76C-2917.06 6246.51 -3683.33 7133.07 -3683.33 7133.07M7139.01 3506.99C7139.01 3506.99 6575.97 4500.95 4430.44 5215.07C2284.92 5929.18 471.504 5585.57 -1221.88 5917.35C-2915.27 6249.12 -3681.04 7135.21 -3681.04 7135.21M7135.92 3507.88C7135.92 3507.88 6573.35 4503.13 4428.4 5217.47C2283.45 5931.81 470.851 5589.49 -1221.32 5920.29C-2913.5 6251.09 -3678.79 7136.71 -3678.79 7136.71M7132.81 3508.13C7132.81 3508.13 6570.72 4504.67 4426.34 5219.23C2281.96 5933.79 470.172 5592.76 -1220.78 5922.59C-2911.73 6252.43 -3676.56 7137.56 -3676.56 7137.56M7129.68 3507.72C7129.68 3507.72 6568.08 4505.55 4424.27 5220.33C2280.46 5935.11 469.485 5595.37 -1220.25 5924.24C-2909.99 6253.1 -3674.32 7137.76 -3674.32 7137.76M7126.53 3506.66C7126.53 3506.66 6565.41 4505.77 4422.17 5220.78C2278.93 5935.79 468.769 5597.34 -1219.75 5925.23C-2908.27 6253.11 -3672.11 7137.31 -3672.11 7137.31" stroke="#E1F0FF" stroke-miterlimit="10"/>
</svg>
